<svg width="22" height="22" viewBox="0 0 22 22" xmlns="http://www.w3.org/2000/svg">
  <path d="M2 5C2 3.89543 2.89543 3 4 3H18C19.1046 3 20 3.89543 20 5V17C20 18.1046 19.1046 19 18 19H4C2.89543 19 2 18.1046 2 17V5Z" fill="currentColor"/>
  <path d="M5.92969 14.5352C5.92969 13.9829 6.3774 13.5352 6.92969 13.5352H7.46484C8.01713 13.5352 8.46484 13.9829 8.46484 14.5352V15.0703C8.46484 15.6226 8.01713 16.0703 7.46484 16.0703H6.92969C6.3774 16.0703 5.92969 15.6226 5.92969 15.0703V14.5352Z" fill="white"/>
  <path d="M5.92969 10.7363C5.92969 10.184 6.3774 9.73633 6.92969 9.73633H7.46484C8.01713 9.73633 8.46484 10.184 8.46484 10.7363V11.2715C8.46484 11.8238 8.01713 12.2715 7.46484 12.2715H6.92969C6.3774 12.2715 5.92969 11.8238 5.92969 11.2715V10.7363Z" fill="white"/>
  <path d="M5.92969 6.92969C5.92969 6.3774 6.3774 5.92969 6.92969 5.92969H7.46484C8.01713 5.92969 8.46484 6.3774 8.46484 6.92969V7.46484C8.46484 8.01713 8.01713 8.46484 7.46484 8.46484H6.92969C6.3774 8.46484 5.92969 8.01713 5.92969 7.46484V6.92969Z" fill="white"/>
  <path d="M9.72852 14.5352C9.72852 13.9829 10.1762 13.5352 10.7285 13.5352H15.0707C15.623 13.5352 16.0707 13.9829 16.0707 14.5352V15.0703C16.0707 15.6226 15.623 16.0703 15.0707 16.0703H10.7285C10.1762 16.0703 9.72852 15.6226 9.72852 15.0703V14.5352Z" fill="white"/>
  <path d="M9.72852 10.7363C9.72852 10.184 10.1762 9.73633 10.7285 9.73633H15.0707C15.623 9.73633 16.0707 10.184 16.0707 10.7363V11.2715C16.0707 11.8238 15.623 12.2715 15.0707 12.2715H10.7285C10.1762 12.2715 9.72852 11.8238 9.72852 11.2715V10.7363Z" fill="white"/>
  <path d="M9.72852 6.92969C9.72852 6.3774 10.1762 5.92969 10.7285 5.92969H15.0707C15.623 5.92969 16.0707 6.3774 16.0707 6.92969V7.46484C16.0707 8.01713 15.623 8.46484 15.0707 8.46484H10.7285C10.1762 8.46484 9.72852 8.01713 9.72852 7.46484V6.92969Z" fill="white"/>
</svg>
