<svg width="22" height="22" viewBox="0 0 22 22" xmlns="http://www.w3.org/2000/svg">
  <path d="M15.3906 7C15.3906 6.44771 15.8383 6 16.3906 6H18.0773C18.6296 6 19.0773 6.44772 19.0773 7V17.9422C19.0773 18.4945 18.6296 18.9422 18.0773 18.9422H16.3906C15.8383 18.9422 15.3906 18.4945 15.3906 17.9422V7Z" fill="currentColor"/>
  <path d="M2.5 18C2.5 18.5523 2.94772 19 3.5 19H12.5C13.0523 19 13.5 18.5523 13.5 18V4C13.5 3.44772 13.0523 3 12.5 3H3.5C2.94771 3 2.5 3.44772 2.5 4V18ZM5.80821 17.5238C5.15149 17.5238 4.6097 16.9908 4.6097 16.3265C4.6097 15.6704 5.15149 15.1374 5.80821 15.1374C6.46493 15.1374 7.00672 15.6704 7.00672 16.3265C7.00672 16.9908 6.46493 17.5238 5.80821 17.5238ZM10.2 4.48437C10.8567 4.48437 11.3903 5.02563 11.3903 5.6817C11.3903 6.33778 10.8567 6.87904 10.2 6.87904C9.54328 6.87904 9.00149 6.33778 9.00149 5.6817C8.99328 5.02563 9.53507 4.48437 10.2 4.48437ZM10.2 8.01076C10.8567 8.01076 11.3903 8.55202 11.3903 9.2081C11.3903 9.86417 10.8567 10.4054 10.2 10.4054C9.54328 10.4054 9.00149 9.86417 9.00149 9.2081C8.99328 8.55202 9.53507 8.01076 10.2 8.01076ZM10.2 11.5454C10.8567 11.5454 11.3903 12.0784 11.3903 12.7427C11.3903 13.3988 10.8567 13.94 10.2 13.94C9.54328 13.94 9.00149 13.3988 9.00149 12.7427C8.99328 12.0784 9.53507 11.5454 10.2 11.5454ZM10.2 15.1374C10.8567 15.1374 11.3903 15.6704 11.3903 16.3265C11.3903 16.9826 10.8567 17.5238 10.2 17.5238C9.54328 17.5238 9.00149 16.9908 9.00149 16.3265C8.99328 15.6704 9.53507 15.1374 10.2 15.1374ZM5.80821 4.48437C6.46493 4.48437 7.00672 5.02563 7.00672 5.6817C7.00672 6.33778 6.47313 6.87904 5.80821 6.87904C5.15149 6.87904 4.6097 6.33778 4.6097 5.6817C4.6097 5.02563 5.15149 4.48437 5.80821 4.48437ZM5.80821 8.01076C6.46493 8.01076 7.00672 8.55202 7.00672 9.2081C7.00672 9.86417 6.47313 10.4054 5.80821 10.4054C5.15149 10.4054 4.6097 9.86417 4.6097 9.2081C4.6097 8.55202 5.15149 8.01076 5.80821 8.01076ZM5.80821 11.5454C6.46493 11.5454 7.00672 12.0784 7.00672 12.7427C7.00672 13.3988 6.47313 13.94 5.80821 13.94C5.15149 13.94 4.6097 13.3988 4.6097 12.7427C4.6097 12.0784 5.15149 11.5454 5.80821 11.5454Z" fill="currentColor"/>
</svg>
