<svg width="32" height="32" viewBox="0 0 32 32" fill="none" xmlns="http://www.w3.org/2000/svg">
              <g clip-path="url(#clip0_19_234)">
                <rect x="7" y="7" width="18" height="18" rx="5" class="instagram-cls-1" />
                <path
                  d="M21.5884 11.2948C21.5884 10.7901 21.1792 10.3809 20.6744 10.3809C20.1697 10.3809 19.7605 10.7901 19.7605 11.2948C19.7605 11.7996 20.1697 12.2088 20.6744 12.2088C21.1795 12.2084 21.5884 11.7996 21.5884 11.2948Z"
                  class="instagram-cls-2" />
                <path
                  d="M15.9821 11.7949C13.6694 11.7949 11.7948 13.6695 11.7948 15.9822C11.7948 16.5603 11.9121 17.1111 12.1239 17.612C12.3357 18.1129 12.6424 18.5642 13.0214 18.9429C13.779 19.7005 14.8261 20.1694 15.9824 20.1694C17.1387 20.1694 18.1854 19.7009 18.9434 18.9429C19.3224 18.5639 19.6291 18.1129 19.8409 17.612C20.0527 17.1111 20.17 16.5603 20.17 15.9822C20.1693 13.6695 18.2947 11.7949 15.9821 11.7949Z"
                  class="instagram-cls-3" />
                <path
                  d="M15.9821 0.175781C7.25244 0.175781 0.175812 7.25241 0.175812 15.982C0.175812 24.7116 7.25244 31.7883 15.9821 31.7883C24.7117 31.7883 31.7883 24.7116 31.7883 15.982C31.7883 7.25241 24.7117 0.175781 15.9821 0.175781ZM24.7633 19.5781C24.7633 22.4419 22.4419 24.7633 19.5782 24.7633H12.386C9.52222 24.7633 7.20081 22.4419 7.20081 19.5781V12.3859C7.20081 11.3122 7.52712 10.3146 8.08631 9.48707C9.01818 8.10771 10.596 7.20078 12.386 7.20078H19.5785C21.3681 7.20078 22.9463 8.10771 23.8782 9.48672C24.437 10.3143 24.7633 11.3118 24.7633 12.3859V19.5781Z"
                  class="instagram-cls-4" />
              </g>
              <defs>
                <linearGradient id="instagram-gradient" x1="25.5" y1="5" x2="6" y2="28.5"
                  gradientUnits="userSpaceOnUse">
                  <stop stop-color="#BA00ED" />
                  <stop offset="0.5" stop-color="#FF5689" />
                  <stop offset="1" stop-color="#FFC420" />
                </linearGradient>
                <clipPath id="clip0_19_234">
                  <rect width="32" height="32" fill="white" />
                </clipPath>
              </defs>
            </svg>