<svg width="32" height="32" viewBox="0 0 32 32" fill="none" xmlns="http://www.w3.org/2000/svg">
              <g clip-path="url(#clip0_19_239)">
                <path class="twitter-cls-1"
                  d="M8 25H6L14 17L6.5 7H12L17 13L22.5 7H24.5L17.5 14.5L25.5 25H20L14.5 18L8 25Z" />
                <path class="twitter-cls-2" d="M8.91843 8.25781L20.4746 23.7058H23.0914L11.5352 8.25781H8.91843Z" />
                <path class="twitter-cls-2"
                  d="M15.9821 0.175781C7.25244 0.175781 0.175812 7.25241 0.175812 15.982C0.175812 24.7116 7.25244 31.7883 15.9821 31.7883C24.7117 31.7883 31.7883 24.7116 31.7883 15.982C31.7883 7.25241 24.7117 0.175781 15.9821 0.175781ZM19.8571 24.9403L14.596 17.9058L8.08456 24.9403H6.41085L13.8482 16.9058L6.45757 7.02375H12.1538L16.9989 13.5022L22.9955 7.02375H24.6692L17.7467 14.5026L25.5533 24.9403H19.8571Z" />
              </g>
              <defs>
                <clipPath id="clip0_19_239">
                  <rect width="32" height="32" fill="white" />
                </clipPath>
              </defs>
            </svg>