<svg width="32" height="32" viewBox="0 0 32 32" fill="none" xmlns="http://www.w3.org/2000/svg">
              <path class="youtube-cls-1" d="M12 22V10L22 15.6842L12 22Z" />
              <path class="youtube-cls-2"
                d="M31.1276 8.37357C30.7641 7.01353 29.6928 5.94221 28.3327 5.57867C25.8677 4.91797 15.9821 4.91797 15.9821 4.91797C15.9821 4.91797 6.09651 4.91797 3.63144 5.57867C2.2714 5.94221 1.20009 7.01353 0.836543 8.37357C0.175842 10.8386 0.175842 15.9823 0.175842 15.9823C0.175842 15.9823 0.175842 21.126 0.836543 23.5911C1.20009 24.9512 2.2714 26.0225 3.63144 26.386C6.09651 27.0467 15.9821 27.0467 15.9821 27.0467C15.9821 27.0467 25.8677 27.0467 28.3327 26.386C29.6928 26.0225 30.7641 24.9512 31.1276 23.5911C31.7883 21.126 31.7883 15.9823 31.7883 15.9823C31.7883 15.9823 31.7883 10.8386 31.1276 8.37357ZM12.8208 20.7242V11.2405L21.0338 15.9823L12.8208 20.7242Z" />
            </svg>