<svg xmlns="http://www.w3.org/2000/svg" width="800" height="624" viewBox="0 0 800 624" fill="none">
          <path
            d="M403.669 0C545.355 0 664.977 94.4679 702.987 223.854H722.935V271.56H799.999L748.623 330.275L799.999 392.661H705.045C669.469 525.798 548.021 623.853 403.669 623.853C259.318 623.852 137.869 525.798 102.294 392.661H0L51.376 330.275L0 271.56H77.0645V223.854H104.352C142.362 94.468 261.983 0.000214027 403.669 0ZM161.468 392.661H130.158C144.685 439.732 171.24 482.648 207.711 516.901L228.15 495.139C197.688 466.528 174.95 431.171 161.468 392.341V392.661ZM640.003 392.661C627.759 428.333 607.687 461.184 580.864 488.629L602.217 509.496C634.577 476.385 658.136 436.227 671.377 392.661H640.003ZM403.67 117.431C298.28 117.431 212.844 202.867 212.844 308.257C212.844 413.647 298.28 499.082 403.67 499.082C509.06 499.082 594.495 413.647 594.495 308.257C594.495 202.867 509.06 117.431 403.67 117.431ZM405.915 190.826C414.918 190.826 423.809 191.951 432.587 194.202C441.365 196.228 449.13 199.605 455.882 204.331C462.859 209.058 468.373 215.247 472.425 222.899C476.701 230.552 478.84 239.78 478.84 250.584C478.84 259.137 477.489 266.564 474.788 272.866C472.312 279.168 468.824 284.571 464.322 289.072C459.821 293.574 454.419 297.287 448.117 300.213C442.04 302.914 435.4 305.052 428.197 306.628C426.622 307.078 425.834 307.866 425.834 308.991C425.834 309.891 426.622 310.792 428.197 311.692C438.776 316.869 446.879 322.608 452.506 328.91C458.358 335.212 462.747 341.74 465.673 348.492C468.824 355.244 471.074 362.222 472.425 369.424C473.775 376.401 475.239 383.266 476.814 390.019C477.94 395.195 479.74 399.021 482.216 401.497C484.917 403.748 487.618 404.873 490.318 404.873C493.019 404.873 495.608 403.748 498.084 401.497C500.56 399.246 502.473 395.87 503.823 391.369C504.273 389.569 505.174 388.443 506.524 387.993C507.875 387.318 509.113 387.205 510.238 387.655C511.589 387.88 512.714 388.555 513.614 389.681C514.74 390.581 515.19 391.594 514.965 392.72C514.29 398.347 512.714 403.186 510.238 407.237C507.762 411.289 504.723 414.664 501.122 417.365C497.746 419.841 493.807 421.642 489.306 422.768C485.029 424.118 480.753 424.793 476.477 424.793C469.274 424.793 462.747 423.217 456.895 420.066C451.043 416.915 447.104 412.413 445.078 406.562C443.728 402.735 442.378 398.572 441.027 394.07C439.902 389.569 438.776 385.067 437.65 380.565C436.525 375.839 435.4 371.337 434.274 367.061C433.149 362.559 432.137 358.62 431.236 355.244C427.185 340.839 421.895 330.486 415.368 324.184C409.066 317.882 400.175 314.73 388.696 314.73C384.87 314.731 381.607 315.518 378.906 317.094C376.205 318.669 374.855 321.82 374.854 326.547V372.125C374.854 379.777 375.642 385.967 377.218 390.693C378.793 395.195 381.157 398.796 384.308 401.497C387.459 403.973 391.286 405.774 395.787 406.899C400.514 408.025 405.915 408.813 411.992 409.263C413.343 409.263 414.355 409.938 415.03 411.288C415.931 412.413 416.381 413.764 416.381 415.34C416.381 416.69 415.931 417.928 415.03 419.054C414.355 420.179 413.23 420.741 411.654 420.741C400.401 420.741 390.497 420.291 381.944 419.391C373.392 418.49 365.064 418.04 356.961 418.04C348.408 418.04 339.967 418.49 331.64 419.391C323.312 420.291 315.21 420.741 307.332 420.741C305.982 420.741 304.968 420.179 304.293 419.054C303.618 417.928 303.167 416.69 302.942 415.34C302.942 413.989 303.281 412.751 303.956 411.626C304.631 410.276 305.757 409.488 307.332 409.263C313.634 408.587 318.811 407.687 322.862 406.562C326.913 405.436 330.065 403.636 332.315 401.16C334.566 398.684 336.029 395.42 336.704 391.369C337.604 387.318 338.055 381.915 338.055 375.163V248.559C338.055 243.607 337.829 238.768 337.379 234.041C337.154 229.314 336.479 224.925 335.354 220.874C334.228 216.823 332.428 213.334 329.952 210.408C327.701 207.482 324.55 205.456 320.499 204.331C318.023 203.656 315.434 203.093 312.733 202.643C310.033 202.192 307.444 201.855 304.969 201.63C303.618 201.63 302.605 201.067 301.93 199.941C301.255 198.816 300.917 197.578 300.917 196.228C300.917 194.877 301.255 193.64 301.93 192.515C302.605 191.389 303.618 190.826 304.969 190.826C312.621 190.826 319.486 191.051 325.562 191.501C331.64 191.951 338.73 192.177 346.833 192.177C360.337 191.952 371.479 191.726 380.257 191.501C389.26 191.051 397.812 190.826 405.915 190.826ZM396.462 205.006C387.684 205.006 381.832 206.131 378.906 208.382C376.205 210.633 374.854 215.247 374.854 222.225V288.734C374.855 294.586 376.43 298.075 379.581 299.2C382.957 300.1 387.909 300.551 394.437 300.551C403.214 300.551 410.529 299.763 416.381 298.188C422.458 296.387 427.297 293.573 430.898 289.747C434.5 285.696 436.976 280.632 438.326 274.555C439.902 268.253 440.689 260.6 440.689 251.597C440.689 243.044 439.902 235.841 438.326 229.989C436.751 223.912 434.162 219.073 430.561 215.472C427.184 211.646 422.683 208.945 417.057 207.369C411.43 205.794 404.565 205.006 396.462 205.006ZM184.296 124.388C159.584 153.871 141.303 187.743 130.159 223.854H161.468V224.174C171.593 195.009 186.99 167.653 207.178 143.566L184.296 124.388ZM586.767 136.48C610.118 162.034 627.832 191.799 639.183 223.854H670.651C658.249 184.27 637.282 147.5 608.807 116.34L586.767 136.48Z"
            fill="#14142D" />
        </svg>