<svg width="24" height="24" viewBox="0 0 24 24" xmlns="http://www.w3.org/2000/svg">
  <path d="M8.04591 23.7087L6.7548 19.3386C6.69237 19.1752 6.60991 18.9969 6.51586 18.8265C6.42208 18.6557 6.31539 18.4903 6.19868 18.3351C6.08225 18.1802 5.95316 18.0314 5.81512 17.8934C5.67734 17.7558 5.52876 17.6268 5.37333 17.5101C5.2187 17.3939 5.05326 17.2869 4.88202 17.1926C4.71158 17.0988 4.53297 17.0164 4.3512 16.9476L0 15.6631L4.37016 14.372C4.53297 14.3098 4.71158 14.2276 4.88255 14.1333C5.05379 14.039 5.21896 13.932 5.3736 13.8159C5.52903 13.6992 5.67761 13.5701 5.81538 13.4326C5.95342 13.2945 6.08225 13.146 6.19868 12.9908C6.31565 12.8354 6.42234 12.6699 6.51613 12.4995C6.61017 12.329 6.69237 12.1504 6.76112 11.9686L8.04591 7.61719L9.33702 11.9874C9.39998 12.1512 9.48217 12.3298 9.57595 12.4997C9.66947 12.6699 9.77643 12.8354 9.8934 12.991C10.0096 13.146 10.1387 13.2948 10.2767 13.4328C10.4145 13.5703 10.5631 13.6994 10.7185 13.8161C10.8731 13.9323 11.0386 14.0393 11.2098 14.1336C11.3808 14.2276 11.5591 14.3098 11.7404 14.3783L16.0918 15.6634L11.7219 16.9542C11.5588 17.0166 11.3802 17.0991 11.2095 17.1931C11.0383 17.2875 10.8731 17.3944 10.7182 17.5106C10.5628 17.6273 10.4142 17.7564 10.2764 17.8939C10.1384 18.0319 10.0096 18.1805 9.89313 18.3354C9.7759 18.4914 9.66921 18.6565 9.57569 18.8267C9.48375 18.9937 9.40235 19.1694 9.33385 19.3488L8.04591 23.7087Z" fill="currentColor"/>
  <path d="M18.1992 11.0199L17.2783 7.90233C17.2414 7.80776 17.1903 7.69685 17.1323 7.59148C17.0736 7.48505 17.0075 7.38231 16.935 7.28615C16.8626 7.18947 16.7822 7.09727 16.6969 7.01192C16.6115 6.92656 16.5196 6.84648 16.4229 6.77377C16.3262 6.70106 16.2237 6.63494 16.1178 6.57645C16.0119 6.51797 15.9008 6.46686 15.788 6.42419L12.6895 5.50953L15.8067 4.58855C15.9008 4.5522 16.0119 4.50083 16.1181 4.44261C16.2237 4.38439 16.3262 4.31827 16.4226 4.24556C16.5196 4.17285 16.6115 4.09277 16.6966 4.00767C16.7822 3.92232 16.8623 3.83012 16.935 3.73317C17.0072 3.63702 17.0736 3.53428 17.1323 3.42811C17.1905 3.32274 17.2417 3.21183 17.2846 3.09855L18.1992 0L19.12 3.11752C19.1568 3.21209 19.208 3.323 19.2659 3.42838C19.3247 3.5348 19.3908 3.63755 19.4632 3.7337C19.5357 3.83038 19.616 3.92258 19.7014 4.00794C19.7867 4.09329 19.8787 4.17338 19.9753 4.24609C20.072 4.31879 20.1745 4.38492 20.2804 4.4434C20.3863 4.50162 20.4975 4.55299 20.6102 4.59567L23.7088 5.5098L20.5915 6.43077C20.4975 6.46713 20.3863 6.5185 20.2801 6.57672C20.1745 6.63494 20.072 6.70106 19.9756 6.77377C19.8787 6.84648 19.7867 6.92656 19.7016 7.01165C19.616 7.09701 19.5359 7.18921 19.4632 7.28615C19.391 7.38231 19.3247 7.48505 19.2659 7.59122C19.2093 7.69396 19.1592 7.8017 19.1171 7.91182L18.1992 11.0199Z" fill="currentColor"/>
</svg>
