<svg xmlns="http://www.w3.org/2000/svg" width="24" height="24" viewBox="0 0 24 24" fill="none">
                <g opacity="0.6">
                  <path
                    d="M17.25 11.25C13.95 11.25 11.25 13.95 11.25 17.25C11.25 20.55 13.95 23.25 17.25 23.25C20.55 23.25 23.25 20.55 23.25 17.25C23.25 13.95 20.55 11.25 17.25 11.25ZM19.5 18H18V19.5C18 19.95 17.7 20.25 17.25 20.25C16.8 20.25 16.5 19.95 16.5 19.5V18H15C14.55 18 14.25 17.7 14.25 17.25C14.25 16.8 14.55 16.5 15 16.5H16.5V15C16.5 14.55 16.8 14.25 17.25 14.25C17.7 14.25 18 14.55 18 15V16.5H19.5C19.95 16.5 20.25 16.8 20.25 17.25C20.25 17.7 19.95 18 19.5 18Z"
                    fill="white" />
                  <path
                    d="M9.75 17.25C9.75 16.2 9.975 15.15 10.425 14.25C10.275 14.25 10.125 14.175 10.05 14.1L8.85 13.05L5.025 16.35C4.875 16.425 4.65 16.5 4.5 16.5C4.275 16.5 4.05 16.425 3.9 16.275C3.6 15.975 3.675 15.525 3.975 15.225L7.65 12.075L3.975 8.925C3.675 8.625 3.6 8.175 3.9 7.875C4.2 7.575 4.65 7.5 4.95 7.8L10.425 12.6L15.9 7.8C16.2 7.5 16.65 7.575 16.95 7.875C17.25 8.175 17.175 8.625 16.875 8.925L15.75 9.9C16.2 9.825 16.725 9.75 17.25 9.75C18.3 9.75 19.35 9.975 20.25 10.35V6.75C20.25 5.475 19.275 4.5 18 4.5H3C1.725 4.5 0.75 5.475 0.75 6.75V17.25C0.75 18.525 1.725 19.5 3 19.5H10.125C9.9 18.825 9.75 18 9.75 17.25Z"
                    fill="white" />
                </g>
              </svg>