<svg id="_Слой_21" class="partners__image" data-name="Слой 21" xmlns="http://www.w3.org/2000/svg"
              viewBox="0 0 469.41 89.83">
              <defs>
                <style>
                  .misto-cls-1 {
                    stroke: #000;
                    stroke-miterlimit: 10;
                  }
                </style>
              </defs>
              <g id="_Слой_1-2" data-name="Слой 1">
                <g>
                  <path class="misto-cls-2"
                    d="M121.24,1.22v17.67h18.65V1.22h8.05v44.1h-8.05v-19.43h-18.65v19.43h-8.05V1.22h8.05Z" />
                  <path class="misto-cls-2"
                    d="M164.03,32.82l-3.79,12.5h-8.31L166.05,1.22h10.27l14.33,44.1h-8.64l-3.99-12.5h-14ZM176.65,26.74l-3.47-10.86c-.85-2.68-1.57-5.69-2.22-8.24h-.13c-.65,2.55-1.31,5.63-2.09,8.24l-3.4,10.86h11.32Z" />
                  <path class="misto-cls-2"
                    d="M202.7,1.22v37.49h12.43V1.22h7.92v37.49h12.43V1.22h7.92v44.1h-48.55V1.22h7.85Z" />
                  <path class="misto-cls-2"
                    d="M275.39,25.76h-16.62v12.96h18.58v6.61h-26.63V1.22h25.65v6.61h-17.6v11.38h16.62v6.54Z" />
                  <path class="misto-cls-2"
                    d="M331.26,27.33c-.26-5.69-.59-12.56-.52-18.52h-.2c-1.44,5.37-3.27,11.32-5.23,16.88l-6.41,19.11h-6.22l-5.89-18.84c-1.7-5.63-3.27-11.65-4.45-17.14h-.13c-.2,5.76-.46,12.76-.79,18.78l-.98,17.73h-7.52l2.94-44.1h10.6l5.76,17.73c1.57,5.17,2.94,10.4,4.06,15.31h.2c1.18-4.78,2.68-10.21,4.38-15.38l6.08-17.67h10.47l2.55,44.1h-7.85l-.85-17.99Z" />
                  <path class="misto-cls-2" d="M354.23,1.22v44.1h-8.05V1.22h8.05Z" />
                  <path class="misto-cls-2"
                    d="M393.1,44.01c-1.9.98-6.08,1.96-11.38,1.96-14,0-22.51-8.77-22.51-22.18,0-14.53,10.08-23.29,23.55-23.29,5.3,0,9.09,1.11,10.73,1.96l-1.77,6.41c-2.09-.92-4.97-1.7-8.64-1.7-8.96,0-15.44,5.63-15.44,16.23,0,9.68,5.69,15.9,15.38,15.9,3.27,0,6.67-.65,8.77-1.64l1.31,6.35Z" />
                  <path class="misto-cls-2" d="M408.14,7.96h-12.56V1.22h33.3v6.74h-12.69v37.36h-8.05V7.96Z" />
                  <path class="misto-cls-2"
                    d="M468.99,22.81c0,14.79-8.96,23.23-21.13,23.23s-20.28-9.49-20.28-22.44S436.08.5,448.52.5s20.48,9.75,20.48,22.31ZM436.08,23.47c0,8.96,4.51,16.1,12.24,16.1s12.17-7.2,12.17-16.42c0-8.31-4.12-16.16-12.17-16.16s-12.24,7.39-12.24,16.49Z" />
                </g>
                <g>
                  <path class="misto-cls-1" d="M115.07,61.85h2.68v26.8h-2.68v-26.8Z" />
                  <path class="misto-cls-1"
                    d="M123.59,61.85h5.28c2.13,0,3.76.25,4.9.76,1.14.5,2.04,1.28,2.71,2.32s.99,2.21.99,3.48c0,1.19-.29,2.28-.87,3.25-.58.98-1.43,1.77-2.56,2.38,1.39.47,2.46,1.03,3.22,1.67.75.64,1.33,1.41,1.75,2.31s.63,1.89.63,2.94c0,2.15-.79,3.97-2.36,5.46-1.57,1.49-3.68,2.23-6.33,2.23h-7.36v-26.8ZM126.21,64.48v8.58h1.53c1.86,0,3.23-.17,4.11-.52.88-.35,1.57-.89,2.08-1.64.51-.75.77-1.58.77-2.49,0-1.23-.43-2.19-1.29-2.89-.86-.7-2.22-1.05-4.1-1.05h-3.1ZM126.21,75.75v10.28h3.32c1.96,0,3.4-.19,4.31-.57.91-.38,1.65-.98,2.2-1.79.55-.81.83-1.69.83-2.64,0-1.19-.39-2.23-1.17-3.12s-1.85-1.49-3.21-1.82c-.91-.22-2.5-.33-4.77-.33h-1.52Z" />
                  <path class="misto-cls-1"
                    d="M155.52,61.85l12.5,26.8h-2.89l-4.22-8.82h-11.55l-4.18,8.82h-2.99l12.66-26.8h.66ZM155.18,67.55l-4.59,9.7h9.16l-4.57-9.7Z" />
                  <path class="misto-cls-1"
                    d="M171.77,61.85h2.68v11.24h13.65v-11.24h2.68v26.8h-2.68v-12.94h-13.65v12.94h-2.68v-26.8Z" />
                  <path class="misto-cls-1"
                    d="M209.69,61.18c4.06,0,7.46,1.35,10.19,4.06,2.73,2.71,4.1,6.04,4.1,10s-1.36,7.25-4.09,9.99c-2.73,2.73-6.06,4.1-9.98,4.1s-7.33-1.36-10.06-4.08c-2.74-2.72-4.1-6.01-4.1-9.88,0-2.58.62-4.96,1.87-7.16s2.94-3.92,5.1-5.17c2.15-1.25,4.48-1.87,6.98-1.87ZM209.81,63.78c-1.98,0-3.86.52-5.64,1.55-1.78,1.03-3.16,2.43-4.16,4.18-1,1.75-1.5,3.7-1.5,5.85,0,3.19,1.1,5.88,3.31,8.07,2.21,2.2,4.87,3.29,7.99,3.29,2.08,0,4.01-.5,5.78-1.51s3.15-2.39,4.14-4.14,1.49-3.7,1.49-5.84-.5-4.05-1.49-5.77c-.99-1.72-2.39-3.1-4.19-4.13s-3.71-1.55-5.73-1.55Z" />
                  <path class="misto-cls-1" d="M226.91,77.47h10.02v2.22h-10.02v-2.22Z" />
                  <path class="misto-cls-1"
                    d="M252.65,61.85h2.68v3.43h2.06c4.03,0,6.83.79,8.4,2.36,1.57,1.57,2.35,3.46,2.35,5.66,0,2-.69,3.79-2.07,5.35-1.38,1.56-3.99,2.34-7.84,2.34h-2.9v7.67h-2.68v-7.67h-2.88c-2.04,0-3.74-.2-5.07-.59-1.34-.39-2.48-1.24-3.44-2.53s-1.43-2.82-1.43-4.56c0-2.19.78-4.07,2.34-5.65,1.56-1.58,4.37-2.37,8.45-2.37h2.04v-3.43ZM252.65,67.86h-3.01c-2.2,0-3.93.46-5.18,1.39-1.25.93-1.87,2.26-1.87,3.98,0,1.48.49,2.71,1.48,3.7.99.98,2.46,1.48,4.42,1.48l1.35-.02h2.81v-10.53ZM255.33,67.86v10.53h2.82l1.44.02c1.87,0,3.3-.49,4.29-1.47.99-.98,1.48-2.21,1.48-3.69,0-1.64-.58-2.95-1.75-3.93-1.17-.98-2.93-1.47-5.28-1.47h-3.01Z" />
                  <path class="misto-cls-1"
                    d="M273.12,61.85h5.34c3.06,0,5.13.13,6.2.4,1.53.38,2.78,1.15,3.75,2.32.97,1.17,1.46,2.65,1.46,4.42s-.47,3.26-1.42,4.42c-.95,1.16-2.25,1.94-3.92,2.34-1.21.29-3.49.44-6.82.44h-1.91v12.46h-2.68v-26.8ZM275.8,64.48v9.09l4.54.05c1.83,0,3.18-.17,4.03-.5.85-.33,1.52-.87,2-1.62.49-.75.73-1.58.73-2.5s-.24-1.72-.73-2.46c-.49-.75-1.13-1.28-1.92-1.59-.8-.32-2.1-.47-3.91-.47h-4.74Z" />
                  <path class="misto-cls-1"
                    d="M305.8,61.85l12.5,26.8h-2.89l-4.22-8.82h-11.55l-4.18,8.82h-2.99l12.66-26.8h.66ZM305.46,67.55l-4.59,9.7h9.16l-4.57-9.7Z" />
                  <path class="misto-cls-1"
                    d="M322.05,61.85h2.68v11.24h13.65v-11.24h2.68v26.8h-2.68v-12.94h-13.65v12.94h-2.68v-26.8Z" />
                  <path class="misto-cls-1"
                    d="M347.2,61.85h2.73v10.06l10.71-10.06h3.6l-12.87,12.03,13.88,14.78h-3.57l-11.75-12.49v12.49h-2.73v-26.8Z" />
                  <path class="misto-cls-1" d="M368.5,61.85h2.68v26.8h-2.68v-26.8Z" />
                  <path class="misto-cls-1"
                    d="M377.02,61.85h5.28c2.13,0,3.76.25,4.9.76,1.14.5,2.04,1.28,2.71,2.32s.99,2.21.99,3.48c0,1.19-.29,2.28-.87,3.25-.58.98-1.43,1.77-2.56,2.38,1.39.47,2.46,1.03,3.22,1.67.75.64,1.33,1.41,1.75,2.31s.63,1.89.63,2.94c0,2.15-.79,3.97-2.36,5.46-1.57,1.49-3.68,2.23-6.33,2.23h-7.36v-26.8ZM379.64,64.48v8.58h1.53c1.86,0,3.23-.17,4.11-.52.88-.35,1.57-.89,2.08-1.64.51-.75.77-1.58.77-2.49,0-1.23-.43-2.19-1.29-2.89-.86-.7-2.22-1.05-4.1-1.05h-3.1ZM379.64,75.75v10.28h3.32c1.96,0,3.4-.19,4.31-.57.91-.38,1.65-.98,2.2-1.79.55-.81.83-1.69.83-2.64,0-1.19-.39-2.23-1.17-3.12s-1.85-1.49-3.21-1.82c-.91-.22-2.5-.33-4.77-.33h-1.52Z" />
                  <path class="misto-cls-1"
                    d="M422.96,66.83l-2.11,1.62c-1.17-1.52-2.57-2.67-4.2-3.45-1.63-.78-3.43-1.17-5.38-1.17-2.14,0-4.12.51-5.94,1.54s-3.23,2.41-4.24,4.14c-1,1.73-1.5,3.68-1.5,5.84,0,3.27,1.12,6,3.36,8.18,2.24,2.19,5.07,3.28,8.48,3.28,3.75,0,6.89-1.47,9.42-4.41l2.11,1.6c-1.34,1.7-3,3.02-5,3.95-2,.93-4.23,1.39-6.7,1.39-4.69,0-8.39-1.56-11.1-4.68-2.27-2.64-3.41-5.82-3.41-9.55,0-3.92,1.38-7.22,4.13-9.9,2.75-2.68,6.2-4.02,10.34-4.02,2.5,0,4.76.5,6.78,1.49,2.02.99,3.67,2.38,4.96,4.16Z" />
                  <path class="misto-cls-1"
                    d="M427.95,61.85h2.68v11.5h1.93c3.51,0,6.03.17,7.56.51,1.53.34,2.76,1.12,3.7,2.34s1.4,2.8,1.4,4.73-.46,3.47-1.37,4.71-2.07,2.06-3.48,2.44c-1.41.38-3.77.57-7.09.57h-5.34v-26.8ZM430.63,86.07h2.86c3.01,0,4.98-.14,5.9-.43.92-.29,1.65-.82,2.19-1.59s.81-1.77.81-2.99c0-1.34-.34-2.42-1.02-3.26-.68-.84-1.55-1.35-2.6-1.54s-3.01-.28-5.88-.28h-2.26v10.09Z" />
                  <path class="misto-cls-1"
                    d="M450.21,61.85h2.73v10.06l10.71-10.06h3.6l-12.87,12.03,13.88,14.78h-3.57l-11.75-12.49v12.49h-2.73v-26.8Z" />
                </g>
                <rect class="misto-cls-1" x="97.84" y=".5" width="3.39" height="88.83" />
                <path class="misto-cls-2"
                  d="M0,58.28v31.05h86v-26.67l-3.98-.4c-.07-1.26-.13-2.52-.2-3.78.94-.56,1.88-1.13,2.82-1.69h-18.15v-1.2h-3.12v-9.91h2.02v-1.46c-2.57-.49-5.15-.97-7.72-1.46l.07-1.39c-2.32-.97-4.64-1.95-6.97-2.92h-1.46c.02-4.2.04-8.4.07-12.61h2.92v-1.53l-4.38-1.33v-11.28c-.95-.95-1.9-1.9-2.85-2.85-.43-2.78-.86-5.56-1.29-8.34-.53,2.82-1.06,5.64-1.59,8.46-.91.95-1.82,1.89-2.74,2.84v11.35c-1.39.43-2.79.86-4.18,1.29v1.4h2.89v12.74h-1.44c-1.87.95-3.75,1.89-5.62,2.84v2.79h-2.84v1.24h-4.28v1.49h1.4v9.9H6.95v1.5l-6.95-.06Z" />
              </g>
            </svg>