<svg width="2768" height="746" viewBox="0 0 2768 746" class="partners__image" fill="none"
              xmlns="http://www.w3.org/2000/svg">
              <path class="ibud-cls-2" fill-rule="evenodd" clip-rule="evenodd"
                d="M512 0H0V512H512V0ZM98 206L241 132L257 124L272 132L320 157V97H380V188L414 206V273L256 191L98 273V206ZM98 355H414V414H98V355Z"
                fill="black" />
              <path class="ibud-cls-1" fill-rule="evenodd" clip-rule="evenodd"
                d="M1801 501L1791 461L1773 477C1692 538 1553 507 1553 391V244C1553 181 1597 135 1661 135C1725 135 1705 135 1722 137C1747 140 1767 153 1785 170V0H1862V501H1801ZM1785 239V394C1773 406 1755 418 1742 422C1701 434 1629 440 1629 391V242C1629 222 1639 209 1658 209H1718C1733 210 1747 214 1761 221L1785 239Z"
                fill="black" />
              <path class="ibud-cls-1"
                d="M1937 428H1939V501H2016V428H1939V423L1937 428ZM661 134H739V501H661V134ZM661 1H739V77H661V1ZM1257 134V391C1257 440 1330 434 1371 422C1384 418 1402 405 1414 394V134H1492V501H1430L1420 460L1400 477C1317 538 1179 507 1179 391V135H1256L1257 134Z"
                fill="black" />
              <path class="ibud-cls-1" fill-rule="evenodd" clip-rule="evenodd"
                d="M880 463L871 501H809V0H886V173C905 155 926 140 952 137C971 135 990 135 1013 135C1075 135 1119 181 1119 244V391C1119 507 980 538 899 477L880 463ZM886 238L910 221C924 214 939 210 953 209H1012C1032 209 1042 222 1042 242V391C1042 440 969 434 929 422C916 418 898 406 886 394V238ZM2480 225V226H2481V225C2519 204 2689 165 2689 247V276L2688 277C2615 269 2526 269 2485 310C2459 337 2452 378 2457 414C2472 515 2599 538 2676 482C2684 478 2690 473 2694 468C2695 467 2696 468 2696 469L2706 506L2707 507H2767L2768 505V246C2768 106 2565 113 2481 171V225H2480ZM2539 419L2540 420V422C2569 452 2661 432 2687 407L2688 406V337L2687 336C2673 334 2625 331 2593 332C2562 334 2535 343 2531 371C2528 389 2531 410 2539 419Z"
                fill="black" />
              <path class="ibud-cls-1"
                d="M2156 139L2158 137C2159 136 2159 135 2157 135H2085L2084 136V391C2084 507 2224 538 2305 477L2307 475L2321 462C2322 461 2323 462 2323 463L2331 500L2333 501H2392L2393 499V135L2392 134H2315L2314 135V394C2301 406 2283 418 2270 422C2229 434 2156 440 2156 391V139Z"
                fill="black" />
              <path class="ibud-cls-1"
                d="M87.6 583.5H30.2V619.2C34.3 618.6 42.2 618.2 46.6 618.2C59.2 618.2 71.7 621 81 627.1C91.1 633.6 98 644.1 98 659.7C98 675.3 93.9 681.6 86.9 688.5C76 699.2 58.1 703.3 39.9 703.3C21.7 703.3 18.8 702.5 13 701.7V569H87.6V583.5ZM30.2 689C34.1 689.8 38.7 690 44.6 690C55.3 690 66.1 686.6 72.6 679.7C77.1 675 79.9 668.4 79.9 660.2C79.9 652 75.6 643 69 638.5C62.1 633.8 53.2 631.8 43.7 631.8C34.2 631.8 34.4 632.2 30.1 632.6V689.1H30.2V689Z"
                fill="black" />
              <path class="ibud-cls-1"
                d="M122.6 606.7L143.5 663.2C145.7 669.5 148 677 149.6 682.7H150C151.8 677 153.8 669.7 156.1 662.8L175.1 606.7H193.5L167.4 674.8C155 707.6 146.5 724.4 134.6 734.6C126.1 742.1 117.6 745.1 113.3 745.9L109 731.3C113.3 729.9 119.1 727.2 124.2 722.8C128.9 719 134.9 712.3 138.8 703.4C139.6 701.6 140.2 700.2 140.2 699.3C140.2 698.4 139.8 696.9 139 694.8L103.7 606.7H122.7H122.6Z"
                fill="black" />
              <path class="ibud-cls-1"
                d="M279.4 606.7V689.2L289.3 689.4L288.3 732.6H274.7L273.9 702.2H207.8L207 732.6H193.4L192.6 689.4L200.7 689.2C204.8 683.1 208 676.6 210.2 669.7C214 657.9 215.7 645 215.7 631.6V606.7H279.5H279.4ZM231 635.7C231 648.3 229.2 660.6 226.1 671.2C224.1 677.7 221.4 683.6 218.4 689H262.4V619.9H231V635.7Z"
                fill="black" />
              <path class="ibud-cls-1"
                d="M329.3 579.8C329.5 585.7 325.2 590.5 318.2 590.5C311.2 590.5 307.7 585.8 307.7 579.8C307.7 573.8 312.2 568.9 318.6 568.9C325 568.9 329.3 573.6 329.3 579.8ZM310 702.2V606.6H327.4V702.2H310Z"
                fill="black" />
              <path class="ibud-cls-1"
                d="M355.8 607.8C362.5 606.6 375 605.6 386.2 605.6C402.2 605.6 428.7 608.2 428.7 629.5C428.7 650.8 419.6 648.7 408.8 651V651.4C422.8 653.4 433.1 661.3 433.1 675.1C433.1 700.2 401.5 703.3 382.8 703.3C364.1 703.3 361.1 702.5 355.9 702.1V607.7H355.8V607.8ZM372.2 690.8C377.1 691.4 380.7 691.6 386.2 691.6C397.8 691.6 415.2 688.8 415.2 675C415.2 661.2 401.4 658.2 384.8 658.2H372.2V690.8ZM372.4 646.7H385.4C398.2 646.7 411.5 642.9 411.5 631.7C411.5 620.5 403.2 617.7 385.8 617.7C368.4 617.7 376.5 618.1 372.4 618.5V646.7Z"
                fill="black" />
              <path class="ibud-cls-1"
                d="M464.6 657.6C465 681.1 480 690.8 497.4 690.8C514.8 690.8 517.3 688.6 523.9 685.9L526.9 698.3C520.8 701.1 510.3 704.2 495.1 704.2C465.7 704.2 448.1 684.9 448.1 656C448.1 627.1 465.1 604.5 492.9 604.5C520.7 604.5 532.4 631.9 532.4 649.5C532.4 667.1 532 655.8 531.8 657.6H464.6ZM515.5 645.2C515.7 634.1 511 617 491.4 617C471.8 617 466.1 633.2 464.7 645.2H515.5Z"
                fill="black" />
              <path class="ibud-cls-1"
                d="M626.5 606.7V702.3H609.3V620.4H576.5V645.3C576.5 672.2 573.9 690.1 561.5 698.2C556.8 702 551.4 704.1 542.5 704.1L540.7 690.5C544.1 689.9 547.8 688.5 550.2 686.6C559.1 680.1 560.1 666.7 560.1 645.3V606.8H626.5V606.7Z"
                fill="black" />
              <path class="ibud-cls-1"
                d="M671.7 606.7V639.1C675.6 638.3 682.4 638.1 687.5 638.1C709 638.1 731.7 644.8 731.7 670.3C731.7 695.8 727.8 687.1 721.6 692.2C711.1 701.1 694.2 703.3 680.1 703.3C666 703.3 661.5 702.7 654.4 701.9V606.7H671.7ZM671.7 690.2C675.1 690.6 678.8 691 684.5 691C697.5 691 714.3 686.7 714.3 670.7C714.3 654.7 696.9 650.6 684.1 650.6C671.3 650.6 675.6 651 671.7 651.6V690.3V690.2Z"
                fill="black" />
              <path class="ibud-cls-1"
                d="M770 606.7V645.2H815.4V606.7H832.6V702.3H815.4V659.1H770V702.3H752.8V606.7H770Z" fill="black" />
              <path class="ibud-cls-1"
                d="M880.4 579.8C880.6 585.7 876.3 590.5 869.3 590.5C862.3 590.5 858.8 585.8 858.8 579.8C858.8 573.8 863.3 568.9 869.7 568.9C876.1 568.9 880.4 573.6 880.4 579.8ZM861.1 702.2V606.6H878.5V702.2H861.1Z"
                fill="black" />
              <path class="ibud-cls-1"
                d="M971.4 606.7L988.8 654.9C991.2 662 995.3 673.7 997.5 681.2H997.9C1000.1 674.1 1005.4 658.9 1009.2 648.4L1024.6 606.7H1046.1L1052.8 702.3H1036.2L1034 656.7C1033.4 646.4 1032.6 634.2 1032.2 622.5H1031.6C1029 631.2 1026.5 638.9 1021.1 653.5L1002.7 701.7H990.1L973.1 654.5C970.1 645.4 966 631.6 963.6 622.7H962.8C962.4 634 961.8 646.6 961.2 657.1L958.8 702.3H942.8L949.9 606.7H971.4Z"
                fill="black" />
              <path class="ibud-cls-1"
                d="M1128.2 702.2L1126.8 690.2H1126.2C1120.9 697.7 1110.6 704.4 1097 704.4C1077.6 704.4 1067.8 690.8 1067.8 677C1067.8 653.9 1088.3 641.3 1125.3 641.5V639.5C1125.3 631.6 1123.1 617.4 1103.6 617.4C1084.1 617.4 1085.4 620.2 1078.7 624.5L1074.8 613C1082.7 607.9 1094.2 604.5 1106.2 604.5C1135.4 604.5 1142.5 624.4 1142.5 643.6V679.3C1142.5 687.6 1142.9 695.7 1144.1 702.2H1128.2ZM1125.6 653.5C1106.6 653.1 1085.1 656.5 1085.1 675C1085.1 693.5 1092.6 691.6 1101.5 691.6C1110.4 691.6 1121.8 683.7 1124.6 675.6C1125.2 673.8 1125.6 671.8 1125.6 670.1V653.5Z"
                fill="black" />
              <path class="ibud-cls-1" d="M1233.6 606.7V620.5H1203.8V702.2H1186.6V620.5H1156.8V606.7H1233.6Z"
                fill="black" />
              <path class="ibud-cls-1"
                d="M1256 657.6C1256.4 681.1 1271.4 690.8 1288.8 690.8C1306.2 690.8 1308.7 688.6 1315.3 685.9L1318.3 698.3C1312.2 701.1 1301.7 704.2 1286.5 704.2C1257.1 704.2 1239.5 684.9 1239.5 656C1239.5 627.1 1256.5 604.5 1284.3 604.5C1312.1 604.5 1323.8 631.9 1323.8 649.5C1323.8 667.1 1323.4 655.8 1323.2 657.6H1256ZM1306.9 645.2C1307.1 634.1 1302.4 617 1282.8 617C1263.2 617 1257.5 633.2 1256.1 645.2H1306.9Z"
                fill="black" />
              <path class="ibud-cls-1"
                d="M1345.2 637.9C1345.2 625.7 1344.8 615.8 1344.4 606.7H1360L1360.8 623.1H1361.2C1368.3 611.5 1379.6 604.5 1395.2 604.5C1418.3 604.5 1435.7 624 1435.7 653.1C1435.7 682.2 1414.8 704.4 1392.3 704.4C1369.8 704.4 1368.6 698.9 1362.9 689.4H1362.5V741.3H1345.3V637.8L1345.2 637.9ZM1362.4 663.3C1362.4 665.9 1362.8 668.2 1363.2 670.4C1366.4 682.4 1376.8 690.7 1389.3 690.7C1407.7 690.7 1418.3 675.7 1418.3 653.8C1418.3 631.9 1408.2 618.3 1389.9 618.3C1371.6 618.3 1367 626.8 1363.6 639.8C1363 642 1362.4 644.5 1362.4 646.9V663.3Z"
                fill="black" />
              <path class="ibud-cls-1"
                d="M1476.9 579.8C1477.1 585.7 1472.8 590.5 1465.8 590.5C1458.8 590.5 1455.3 585.8 1455.3 579.8C1455.3 573.8 1459.8 568.9 1466.2 568.9C1472.6 568.9 1476.9 573.6 1476.9 579.8ZM1457.6 702.2V606.6H1475V702.2H1457.6Z"
                fill="black" />
              <path class="ibud-cls-1"
                d="M1556.7 702.2L1555.3 690.2H1554.7C1549.4 697.7 1539.1 704.4 1525.5 704.4C1506.2 704.4 1496.3 690.8 1496.3 677C1496.3 653.9 1516.8 641.3 1553.8 641.5V639.5C1553.8 631.6 1551.6 617.4 1532.1 617.4C1512.6 617.4 1513.9 620.2 1507.2 624.5L1503.3 613C1511.2 607.9 1522.6 604.5 1534.7 604.5C1563.9 604.5 1571 624.4 1571 643.6V679.3C1571 687.6 1571.4 695.7 1572.6 702.2H1556.7ZM1554.1 653.5C1535.1 653.1 1513.6 656.5 1513.6 675C1513.6 693.5 1521.1 691.6 1530 691.6C1538.9 691.6 1550.3 683.7 1553.1 675.6C1553.7 673.8 1554.1 671.8 1554.1 670.1V653.5Z"
                fill="black" />
              <path class="ibud-cls-1"
                d="M1671.8 606.7V702.3H1654.6V620.4H1621.8V645.3C1621.8 672.2 1619.2 690.1 1606.8 698.2C1602.1 702 1596.7 704.1 1587.8 704.1L1586 690.5C1589.4 689.9 1593.1 688.5 1595.5 686.6C1604.4 680.1 1605.4 666.7 1605.4 645.3V606.8H1671.8V606.7Z"
                fill="black" />
              <path class="ibud-cls-1"
                d="M1716.2 606.7V647C1716.2 662.2 1716 671.7 1715.2 685.3L1715.8 685.5C1721.5 673.9 1724.9 667.1 1731.2 656.1L1761 606.7H1781.3V702.3H1764.7V661.8C1764.7 646.2 1765.1 638.1 1765.9 622.7H1765.3C1759.2 634.9 1755 642.6 1749.5 652.3C1740.4 667.1 1730 685.5 1719.7 702.3H1699.8V606.7H1716.2Z"
                fill="black" />
              <path class="ibud-cls-1"
                d="M1851.1 607.8C1857.8 606.6 1870.3 605.6 1881.5 605.6C1897.5 605.6 1924 608.2 1924 629.5C1924 650.8 1914.9 648.7 1904.1 651V651.4C1918.1 653.4 1928.4 661.3 1928.4 675.1C1928.4 700.2 1896.8 703.3 1878.1 703.3C1859.4 703.3 1856.4 702.5 1851.2 702.1V607.7L1851.1 607.8ZM1867.5 690.8C1872.4 691.4 1876 691.6 1881.5 691.6C1893.1 691.6 1910.5 688.8 1910.5 675C1910.5 661.2 1896.7 658.2 1880.1 658.2H1867.5V690.8ZM1867.6 646.7H1880.6C1893.4 646.7 1906.7 642.9 1906.7 631.7C1906.7 620.5 1898.4 617.7 1881 617.7C1863.6 617.7 1871.7 618.1 1867.6 618.5V646.7Z"
                fill="black" />
              <path class="ibud-cls-1" d="M2009.8 569.1V702.2H1992.6V569.1H2009.8Z" fill="black" />
              <path class="ibud-cls-1"
                d="M2056 606.7V645.2H2101.4V606.7H2118.6V702.3H2101.4V659.1H2056V702.3H2038.8V606.7H2056Z"
                fill="black" />
              <path class="ibud-cls-1" d="M2211 606.7V620.5H2181.2V702.2H2164V620.5H2134.2V606.7H2211Z" fill="black" />
              <path class="ibud-cls-1"
                d="M2233.3 657.6C2233.7 681.1 2248.7 690.8 2266.1 690.8C2283.5 690.8 2286 688.6 2292.6 685.9L2295.6 698.3C2289.5 701.1 2279 704.2 2263.8 704.2C2234.4 704.2 2216.8 684.9 2216.8 656C2216.8 627.1 2233.8 604.5 2261.6 604.5C2289.4 604.5 2301.1 631.9 2301.1 649.5C2301.1 667.1 2300.7 655.8 2300.5 657.6H2233.3ZM2284.3 645.2C2284.5 634.1 2279.8 617 2260.2 617C2240.6 617 2234.9 633.2 2233.5 645.2H2284.3Z"
                fill="black" />
              <path class="ibud-cls-1"
                d="M2322.6 637.9C2322.6 625.7 2322.2 615.8 2321.8 606.7H2337.4L2338.2 623.1H2338.6C2345.7 611.5 2357 604.5 2372.6 604.5C2395.7 604.5 2413.1 624 2413.1 653.1C2413.1 682.2 2392.2 704.4 2369.7 704.4C2347.2 704.4 2346 698.9 2340.3 689.4H2339.9V741.3H2322.7V637.8H2322.6V637.9ZM2339.8 663.3C2339.8 665.9 2340.2 668.2 2340.6 670.4C2343.8 682.4 2354.2 690.7 2366.7 690.7C2385.1 690.7 2395.7 675.7 2395.7 653.8C2395.7 631.9 2385.6 618.3 2367.3 618.3C2349 618.3 2344.4 626.8 2341 639.8C2340.4 642 2339.8 644.5 2339.8 646.9V663.3Z"
                fill="black" />
              <path class="ibud-cls-1"
                d="M2451.7 606.7V645.2H2497.1V606.7H2514.3V702.3H2497.1V659.1H2451.7V702.3H2434.5V606.7H2451.7Z"
                fill="black" />
              <path class="ibud-cls-1"
                d="M2552.4 657.6C2552.8 681.1 2567.8 690.8 2585.2 690.8C2602.6 690.8 2605.1 688.6 2611.7 685.9L2614.7 698.3C2608.6 701.1 2598.1 704.2 2582.9 704.2C2553.5 704.2 2535.9 684.9 2535.9 656C2535.9 627.1 2552.9 604.5 2580.7 604.5C2608.5 604.5 2620.2 631.9 2620.2 649.5C2620.2 667.1 2619.8 655.8 2619.6 657.6H2552.4ZM2603.3 645.2C2603.5 634.1 2598.8 617 2579.2 617C2559.6 617 2553.9 633.2 2552.5 645.2H2603.3Z"
                fill="black" />
              <path class="ibud-cls-1" d="M2705.4 606.7V620.5H2675.6V702.2H2658.4V620.5H2628.6V606.7H2705.4Z"
                fill="black" />
              <path class="ibud-cls-1"
                d="M2740 579.8C2740.2 585.7 2735.9 590.5 2728.9 590.5C2721.9 590.5 2718.4 585.8 2718.4 579.8C2718.4 573.8 2722.9 568.9 2729.3 568.9C2735.7 568.9 2740 573.6 2740 579.8ZM2720.6 702.2V606.6H2738V702.2H2720.6Z"
                fill="black" />
            </svg>