<svg id="_Слой_24" data-name="Слой 24" xmlns="http://www.w3.org/2000/svg" viewBox="0 0 2879 769.16"
              class="valued-customers__image">

              <g id="_Слой_1-24" data-name="Слой 1">
                <g>
                  <g>
                    <g>
                      <path class="raiff-cls-11"
                        d="M1457.49,769.16l37.42-307.67,3.02-.98,82.53.53c37.6,60.46,73.85,121.79,111.53,182.2,1.86,2.97,3.9,6.7,6.4,9.07l23-190.75h82.97l-37,306.59-88.95-.5c-39.6-62.9-77.51-126.94-117.96-189.25l-21.5,190.75h-81.47Z" />
                      <path class="raiff-cls-11"
                        d="M1946.32,460.56l-14.98,106.86c33.37-34.7,64.4-71.78,97.46-106.86h109.46l-141.01,146.36,110.02,161.24h-113.46c-22.7-32.4-44.21-65.62-66.66-98.19-3.62-5.25-7.4-11.28-11.8-15.66l-23.5,113.85h-86.47l57.98-307.6h82.97Z" />
                    </g>
                    <g>
                      <path class="raiff-cls-11"
                        d="M1114.61,768.16l158.1-304.44,84.2-.22,71.59,305.66h-81.97l-16.46-55-98.84.23-28.15,53.77h-88.47ZM1314.54,650.32l-17.49-79.91-37.49,79.91h54.98Z" />
                      <path class="raiff-cls-11"
                        d="M863.7,768.16l52.02-306.55,134.39-1.03c43.09,3.85,68.84,43.67,62.22,85.1-3.39,21.2-15.34,40.66-30.68,55.27-.34,1.51,11.77,9.65,14.01,11.87,56.58,56.29-7.78,158.98-81.48,155.39l-150.48-.05ZM986.16,576.41c2.17.68,11.73,0,14.99,0,9.22,0,23.49-11.99,25.8-21.16,5.44-21.54-19.01-21.59-33.69-20.85-1.13,6.94-9.99,35.57-8.49,40.35.17.55.92,1.51,1.39,1.66ZM965.66,695.26h40.49c.59,0,7.09-2.29,8.18-2.82,19.3-9.3,17.95-46.14-3.13-48.17-7.39-.71-25.93-.9-33.09,0-1.1.14-2.24-.09-2.99,1.01l-9.45,49.98Z" />
                    </g>
                  </g>
                  <g>
                    <g>
                      <rect class="raiff-cls-11" x="2078.28" y="128.99" width="83.97" height="206.73" />
                      <ellipse class="raiff-cls-11" cx="2120.25" cy="55.64" rx="44.11" ry="44.06" />
                    </g>
                    <g>
                      <path class="raiff-cls-11"
                        d="M1820.37,73.07c-3.99-1.8-6.53-3.4-10.98-4.51-11.02-2.75-29.61-1.69-37.54,7.47-.68.78-3.46,5.1-3.46,5.53v48.44h53.48c.11,0,1.5,1.39,1.5,1.5v62.42h-51.98v141.82h-83.97v-140.82h-75.97v140.82h-79.97v-140.82h-28.99v-65.91h24.99c.46-11.77-.6-23.73-.04-35.5,1.86-39.07,18.04-68.57,55.05-83.82,25.66-10.57,57.04-11.37,82.94-2.03v66.41c-4.41-1.93-8.38-4.14-13.16-5.33-10.3-2.56-22.51-2.55-32.15,2.51-2.54,1.33-8.67,6.56-8.67,9.31v48.44h70.98v-46.44c0-6.77,5.21-23.27,8.14-29.82,21.7-48.58,82.8-63.56,129.81-45.08v65.42Z" />
                      <g>
                        <rect class="raiff-cls-11" x="1403.51" y="128.99" width="82.97" height="206.73" />
                        <ellipse class="raiff-cls-11" cx="1445.22" cy="55.64" rx="44.1" ry="44.06" />
                      </g>
                    </g>
                    <g>
                      <path class="raiff-cls-11"
                        d="M999.15,39.11c65.47,6.05,109.1,79.06,74.89,137.74-11.19,19.19-24.58,27.94-43.13,38.78-.83.49-1.62-.21-1.29,1.72l82.99,118.38h-94.97l-65.56-93.79-2.41-2.08v95.88h-79.97V39.11h129.46ZM949.67,169.94h28.49c1.35,0,8.46-2.92,10.18-3.81,17.89-9.34,18.81-33.68,9.14-49.44-2.47-4.03-11.66-12.66-16.31-12.66h-31.49v65.91Z" />
                      <path class="raiff-cls-11"
                        d="M1282.55,335.72v-11.98c-62,41.66-144.69,6.65-161.65-64.71-21-88.38,64.07-166.82,149.33-126.22,3.2,1.52,9.2,6.34,11.84,7.16,1.85.57,1.33-.34,1.48-1.47.39-2.94-.28-6.47,0-9.51h77.97v206.73h-78.97ZM1237.36,187.21c-67.32,4.96-51.08,103.29,15.04,87.93,56.7-13.17,41.85-92.12-15.04-87.93Z" />
                    </g>
                    <g>
                      <path class="raiff-cls-11"
                        d="M2879,335.72h-78.97v-131.33c0-1.14-3.19-7.38-4.16-8.82-14.71-21.79-60.81-9.96-60.81,13.82v126.34h-77.97v-205.23c0-.11,1.39-1.5,1.5-1.5h73.47v14.98c16.23-8.28,31.18-16.24,49.62-18.84,43.33-6.11,83.68,16.91,94.46,60.16.77,3.09,2.87,11.53,2.87,14.11v136.32Z" />
                      <g>
                        <path class="raiff-cls-11"
                          d="M2372.18,133l-24.14,49.78c-17.89-2.35-37.14-9.33-55.1-3.6-9.03,2.88-6.53,12.12-.07,16.57,13.06,8.98,32.72,7.98,47.32,12.64,36.82,11.77,46.13,56.75,31.17,89.08-25.61,55.36-104.38,50.36-152.38,32.02-2.89-1.11-22.92-9.76-23.62-10.86s.13-3.39.66-4.59l25.69-50.12c15.94,6.79,35.79,17.84,53.1,19.78,11.35,1.27,27.96.22,22.94-15.93-3.04-9.79-31.37-13.62-40.54-16.42-39.38-12.03-58.71-41.57-42.17-82.07,13.81-33.81,45.82-47.55,80.6-48.3,26.11-.57,51.55,5.45,76.52,12.04Z" />
                        <g>
                          <path class="raiff-cls-11"
                            d="M2625.09,245.84h-152.95c.65,35.33,39.69,56.09,68.45,32.94,1.79-1.44,9.31-9.97,10.02-9.97h72.47c-9.72,32.32-31.2,56.51-63.98,66.41-80.29,24.25-171.3-20.14-164.93-111.84,5.64-81.16,89.57-118.47,161.72-94.67,51.03,16.83,71.26,66.52,69.19,117.13ZM2542.12,196.9c-4.57-24.79-56.8-26.27-58.98,0h58.98Z" />
                          <path class="raiff-cls-33" d="M2542.12,196.9h-58.98c2.17-26.27,54.41-24.79,58.98,0Z" />
                        </g>
                      </g>
                    </g>
                    <g>
                      <path class="raiff-cls-11"
                        d="M2057.29,245.84h-152.95c.15,35.01,39.18,55.73,67.89,33.37,1.98-1.54,9.84-10.4,10.58-10.4h71.48c-1.2,7.64-5.63,16.16-9.48,22.99-48.6,86.33-210.61,57.18-218.43-48.47-6.63-89.55,73.53-138.04,155.35-116.26,55.39,14.74,77.15,64.95,75.55,118.77ZM1974.31,196.9c-4.83-24.7-56.74-26.41-58.98,0h58.98Z" />
                      <path class="raiff-cls-33" d="M1974.31,196.9h-58.98c2.24-26.41,54.15-24.7,58.98,0Z" />
                    </g>
                  </g>
                  <g>
                    <path class="raiff-cls-11"
                      d="M0,13.14h756.74v756.02H0V13.14ZM734.74,35.11H21.99v712.08h712.75V35.11Z" />
                    <path class="raiff-cls-22"
                      d="M734.74,35.11v712.08H21.99V35.11h712.75ZM215.93,303.27v-65.42c1.97-.14,3.35,1.59,4.88,2.62,2.23,1.5,16.61,12.01,16.95,13.02l.37,86.52,41.84,42.1.83,2.84-220.38,219.41,92.83,92.78,217.92-218.5,224.99,223.53,93.53-93.17-221.78-221.99,1.39-2.39,40.31-39.63.41-87.48,26.78-22.68v68.41l33.03,26.98,2.26.38,101.69-101.3,2.94.02c9.49,6.38,18.66,15.83,28.11,21.91,1.23.79,2.27,1.83,3.91,1.58,4.34-19.08.54-39.54-5.53-57.89-23.91-72.29-108.31-157.28-181.93-87.95l-108.97,107.91.02,2.93,20.01,24.04.44,2.34-55.29,52.49-52.55-51.5c-.57-3.26,27.36-23.79,26.85-26.69l-117.36-113.52c-69.31-58.71-137.51-6-168.33,62.59-11.72,26.09-19.03,55.53-19.13,84.25,9.74-6.89,18.52-16.45,28.07-23.38,1.41-1.02,4.13-3.4,5.78-2.46l98.8,106.62,2.28-.36,34.01-29Z" />
                    <path class="raiff-cls-11"
                      d="M215.93,303.27l-34.01,29-2.28.36-98.8-106.62c-1.64-.94-4.36,1.43-5.78,2.46-9.56,6.92-18.33,16.49-28.07,23.38.09-28.72,7.4-58.16,19.13-84.25,30.82-68.58,99.01-121.3,168.33-62.59l117.36,113.52c.52,2.9-27.42,23.43-26.85,26.69l52.55,51.5,55.29-52.49-.44-2.34-20.01-24.04-.02-2.93,108.97-107.91c73.61-69.33,158.02,15.66,181.93,87.95,6.07,18.35,9.87,38.8,5.53,57.89-1.64.25-2.68-.79-3.91-1.58-9.45-6.08-18.62-15.52-28.11-21.91l-2.94-.02-101.69,101.3-2.26-.38-33.03-26.98v-68.41l-26.78,22.68-.41,87.48-40.31,39.63-1.39,2.39,221.78,221.99-93.53,93.17-224.99-223.53-217.92,218.5-92.83-92.78,220.38-219.41-.83-2.84-41.84-42.1-.37-86.52c-.35-1.01-14.73-11.52-16.95-13.02-1.53-1.03-2.91-2.76-4.88-2.62v65.42Z" />
                  </g>
                </g>
              </g>
            </svg>