<svg id="_Слой_23" data-name="Слой 23" xmlns="http://www.w3.org/2000/svg" viewBox="0 0 704.13 144.85"
              class="valued-customers__image">

              <g id="_Слой_1-23" data-name="Слой 1">
                <g>
                  <g>
                    <path class="podoroj-cls-3"
                      d="M65.92,72.7H0v-23.4c0-.11,1.39-1.49,1.5-1.49h46.44V1.49c0-.11,1.39-1.49,1.5-1.49h23.47v65.73c-1.45,1.24-5.74,5.53-6.99,6.97Z" />
                    <g>
                      <path class="podoroj-cls-1"
                        d="M144.82,72.7c-8.18.41-16.86-.57-24.97,0-27.1,1.9-45.04,19.85-46.94,46.81-.57,8.08.42,16.74,0,24.9-5.51.24-17.65.88-22.47,0-.83-.15-2.5-.79-2.5-1.49v-27.88c0-12.59,9.71-32.78,17.98-42.32,1.25-1.44,5.55-5.73,6.99-6.97,9.57-8.24,29.82-17.93,42.45-17.93h27.97c.7,0,1.35,1.66,1.5,2.49.88,4.81.24,16.92,0,22.41Z" />
                      <path class="podoroj-cls-2"
                        d="M144.82,72.7c-1.81,41.5-30.33,69.9-71.91,71.7.42-8.15-.57-16.81,0-24.9,25.4.67,47.61-21.46,46.94-46.81,8.11-.57,16.79.41,24.97,0Z" />
                    </g>
                  </g>
                  <path class="podoroj-cls-1"
                    d="M513.36,90.62v-17.43c0-2.37,9.85-1.3,11.99-1.49v19.92c4.29-2.81,10.74-17.47,13.99-19.41,2.57-1.54,9.71.06,12.97-.5l-15.81,23.56,16.81,25.23h-13.98l-13.98-20.91v20.91c-2.13-.2-11.99.87-11.99-1.49v-18.42c-4.23,2.63-10.76,17.86-13.98,19.43-2.69,1.31-9.83.48-13-.02l16.66-24.88c-1.17-2.76-17.21-22.02-15.65-23.41,3.04.3,6.61-.44,9.53-.06,6.4.84,11.3,14.98,16.43,18.97Z" />
                  <path class="podoroj-cls-1"
                    d="M325.59,71.7v37.84c0,.35,6.99-.35,6.99,0v18.92c-1.79-.29-10.59.4-10.99,0-.35-.35.26-6.5,0-7.97h-28.96c-.25,1.47.36,7.62,0,7.97-.4.4-9.2-.3-10.99,0v-18.92c0-.25,3.41.45,5-.48,2.48-1.46,5.33-13.83,5.85-17.08.89-5.62.25-13,1.14-17.79.15-.83.8-2.49,1.5-2.49h30.46ZM313.61,83.65c-2.18.26-7.32-.83-8.55.93-1.36,1.95-.8,21.07-5.43,24.96h13.98v-25.89Z" />
                  <path class="podoroj-cls-1"
                    d="M621.22,71.7v28.88l20.41-27.95c1.61-1.63,10.56-1.4,10.56.57v47.3h-11.99v-27.88l-19.41,26.96c-1.89,1.39-10,1.59-11.12,0-2.16-3.08.63-39.58-.3-46.23,1-3.03,9.13-1.14,11.85-1.63Z" />
                  <path class="podoroj-cls-1"
                    d="M486.36,96.31c0,14.21-11.55,25.73-25.8,25.73s-25.8-11.52-25.8-25.73,11.55-25.73,25.8-25.73,25.8,11.52,25.8,25.73ZM470.11,107.25c6.06-5.36,4.68-21.69-4.66-24.12-23.05-6-23.84,27.6-4.51,27.42,2.02-.02,7.72-2.01,9.17-3.3Z" />
                  <path class="podoroj-cls-1"
                    d="M278.45,96.31c0,14.2-11.55,25.71-25.79,25.71s-25.79-11.51-25.79-25.71,11.55-25.71,25.79-25.71,25.79,11.51,25.79,25.71ZM262.33,85.98c-6.3-6.28-20.45-4.15-22.4,5.37-4.64,22.58,24.24,25.53,25.79,6.8.36-4.37-.15-8.94-3.38-12.16Z" />
                  <path class="podoroj-cls-1"
                    d="M387.33,96.32c0,14.21-11.55,25.72-25.8,25.72s-25.8-11.52-25.8-25.72,11.55-25.72,25.8-25.72,25.8,11.52,25.8,25.72ZM371.2,85.98c-6.3-6.28-20.45-4.15-22.4,5.37-4.98,24.19,28.77,26.18,25.76,1.73-.29-2.35-1.73-5.48-3.36-7.1Z" />
                  <path class="podoroj-cls-1"
                    d="M207.74,120.5v-36.85h-15.98v35.35c0,2.37-9.85,1.3-11.99,1.49v-47.3c0-.11,1.39-1.49,1.5-1.49h36.95c.11,0,1.5,1.39,1.5,1.49v45.81c0,2.37-9.85,1.3-11.99,1.49Z" />
                  <path class="podoroj-cls-1"
                    d="M571.29,90.62h15.98v-17.43c0-2.21,11.99-2.21,11.99,0v47.3h-11.99v-18.92h-15.98v17.43c0,2.37-9.85,1.3-11.99,1.49v-47.3c0-2.21,11.99-2.21,11.99,0v17.43Z" />
                  <path class="podoroj-cls-1"
                    d="M674.16,71.7v19.92c4.36-3.03,12.05-17.75,16-19.4,2.02-.84,10.22-1.01,11.98-.04,1.9,1.05.11,1.61-.53,2.49-4.97,6.7-10.94,12.96-16.22,19.43l18.75,25.9-14,.02-15.97-21.42v21.91c-2.71-.5-10.85,1.4-11.85-1.63.91-6.68-1.85-43.17.3-46.23,1.35-1.93,8.91-.52,11.55-.93Z" />
                  <path class="podoroj-cls-1"
                    d="M406.49,104.57v15.93h-11.99v-47.3c0-.11,1.39-1.49,1.5-1.49h18.98c6.38,0,13.59,7.15,14.39,13.53,1.81,14.31-9.98,20.9-22.88,19.33ZM406.49,93.62c14.5,1.93,14.51-12.89,0-10.96v10.96Z" />
                  <path class="podoroj-cls-3"
                    d="M334.58,38.84v-14.94c12.48-1.98,8.47,4.97,9,13.94,3.48-1.9,7.23-12.12,9.97-13.45,1.83-.89,10.02-1.02,9.97,1-.02,1-11.27,13.07-11.77,16.09l11.8,18.76c-12.02,4.23-13.75-6.98-19.49-14.44-2.01,8.84,3.98,17.09-9.49,14.95v-15.93c-3.25,2.31-8.22,14.1-10.98,15.44s-7.04.14-9.99.48c-.9-.66,11.83-16.18,12.02-18.49.3-3.61-13.04-16.39-11.02-18.34,12.13-2.93,13,8.45,19.97,14.93Z" />
                  <path class="podoroj-cls-3"
                    d="M179.78,25.39c.65-2.11,7.25-1.94,8.98-.99,1.56.86,8.62,11.95,10.01,14.43,1.47,1.01,9.86-13.77,10.97-14.43,1.77-1.06,8.98-.87,8.98.99v33.86c0,2.17-9.99,2.17-9.99,0v-19.42c-1.98,1.01-7.83,11.9-8.56,12.02-4.24.68-7.68-10.08-11.42-12.02v20.91h-8.99V25.39Z" />
                  <path class="podoroj-cls-3"
                    d="M487.39,23.9v36.85h-8.99v-27.88h-10.99v26.39c0,2.08-7.32,1.49-8.99,1.49V23.9h28.96Z" />
                  <path class="podoroj-cls-3"
                    d="M557.3,23.9c12.48-1.98,8.47,4.97,9,13.94,7.31-6.93,8.28-16.86,20.96-13.94l-12.65,17.42,13.65,19.41c-3.18-.41-8.19.88-10.99-.48-2-.97-9.59-14.49-10.48-14.46-2.01,8.84,3.98,17.09-9.49,14.95V23.9Z" />
                  <path class="podoroj-cls-3"
                    d="M404.49,60.74c-2.29-.45-8.3.77-9.82-.16-1.07-.65-1.8-6.6-2.77-6.86s-13.72-.29-14.26.18c-2.5,2.18,1.26,9.67-11.1,6.85,2.14-4.67,12.94-35.04,14.93-36.38,1.68-1.13,6.69-.87,8.1.97l14.92,35.4ZM388.51,44.8l-3.98-7.95-3.01,7.95h6.99Z" />
                  <path class="podoroj-cls-3"
                    d="M438.29,24.07c1.69,1.05,12.87,32.26,15.14,36.67-1.91-.38-9.04.61-9.87-.11-.26-.22-1.05-5.02-2.01-6.24-.72-.92-11.87-1.02-13.45-.48-2.25.76-1.73,5.23-3.61,6.36-2.09,1.26-6.5.14-9.01.47l14.92-35.41c1.15-1.71,6.6-2.07,7.89-1.26ZM437.45,44.81c.34-.3-2.3-7.72-3.98-7.96l-2,7.96h5.98Z" />
                  <path class="podoroj-cls-3"
                    d="M308.11,23.9c2.03.63,2.21,7.38.56,8.53-1.94,1.36-9.28-.07-12.05.43v4.99c9-.27,12.31-1.65,11,8.96h-11s0,5.98,0,5.98h12.99s0,7.96,0,7.96h-21.47c-.11,0-1.5-1.39-1.5-1.49V25.39c0-.11,1.39-1.49,1.5-1.49,4.14,0,17.25-.84,19.98,0Z" />
                  <path class="podoroj-cls-3"
                    d="M247.19,23.9c2.03.63,2.21,7.38.56,8.53-1.94,1.36-9.28-.07-12.05.43v4.99c9-.27,12.31-1.65,11,8.96h-11s0,5.98,0,5.98h12.99s0,7.96,0,7.96h-21.47c-.11,0-1.5-1.39-1.5-1.49V25.39c0-.11,1.39-1.49,1.5-1.49,4.14,0,17.25-.84,19.98,0Z" />
                  <path class="podoroj-cls-3"
                    d="M549.31,23.9v8.97s-12.99-.01-12.99-.01v4.99c5.41.77,12.08-2.87,12.08,4.48s-6.66,3.71-12.08,4.48v5.98h13.99c.09,1.61.43,7.97-1.5,7.97h-21.47V25.39c0-.11,1.39-1.49,1.5-1.49h20.47Z" />
                  <path class="podoroj-cls-3"
                    d="M255.68,23.9c9.91-.24,26.04-1.35,26.04,12.45,0,9.24-8.59,13.81-17.06,12.44,0,8.98,2.38,13.51-8.98,11.96V23.9ZM264.8,39.69c3.27,5.25,14.38-8.29-.13-6.83.32,1.74-.59,5.67.13,6.83Z" />
                  <path class="podoroj-cls-3"
                    d="M503.37,32.86h-10.99c.29-2.43-1.13-7.92,1.64-8.82,1.63-.53,24.49-.58,26.83-.14,3.89.74,3.26,8.04.86,8.83-1.97.65-8.9-.32-9.35.13-.93.93,1.1,22.52-.13,26.26-.91,2.77-6.4,1.34-8.85,1.63v-27.88Z" />
                </g>
              </g>
            </svg>