<svg xmlns="http://www.w3.org/2000/svg" width="52" height="52" viewBox="0 0 52 52" fill="none">
              <path
                d="M50.2976 5.10486H20.9999C20.2494 5.10486 19.6415 5.71331 19.6415 6.46332V15.69H30.9418C33.5794 15.69 35.725 17.8356 35.725 20.4731V27.5503H39.8426L46.6942 34.2746V27.5508H50.2976C51.0481 27.5508 51.656 26.9424 51.656 26.1924V6.46332C51.656 5.71331 51.0476 5.10486 50.2976 5.10486ZM45.289 18.8087H38.8837V17.0964H45.289V18.8087ZM45.289 13.1009H26.0085V11.3886H45.289V13.1009Z"
                fill="white" />
              <path
                d="M30.8436 19.1146H1.54599C0.795412 19.1146 0.187531 19.7231 0.187531 20.4731V40.2016C0.187531 40.9521 0.795983 41.56 1.54599 41.56H5.14933V48.2844L12.001 41.56H30.8436C31.5942 41.56 32.2021 40.9516 32.2021 40.2016V20.4737C32.2021 19.7231 31.5942 19.1146 30.8436 19.1146ZM13.9987 35.8785L9.53636 30.077L10.88 29.0445L14.1774 33.3311L23.3881 24.3002L24.5747 25.5108L13.9987 35.8785Z"
                fill="white" />
            </svg>