<svg xmlns="http://www.w3.org/2000/svg" width="52" height="52" viewBox="0 0 52 52" fill="none">
              <path
                d="M47.8044 42.2262V37.9864C48.7724 37.7318 49.4916 36.8568 49.4916 35.81V28.7255C49.4916 27.48 48.479 26.4669 47.2336 26.4669C45.9882 26.4669 44.975 27.48 44.975 28.7255V35.81C44.975 36.8568 45.6948 37.7318 46.6628 37.9864V42.2262H43.2381V14.7162H35.7381V8.57349H16.2031V14.7162H8.70359V42.2268H5.2789V37.987C6.24694 37.7324 6.9667 36.8574 6.9667 35.8106V28.7255C6.9667 27.48 5.95356 26.4669 4.70812 26.4669C3.46267 26.4669 2.44954 27.48 2.44954 28.7255V35.81C2.44954 36.8568 3.16929 37.7318 4.13734 37.9864V42.2262H0.285706V43.3677H8.70359H16.2031H17.3446H34.5965H35.7381H43.2381H51.656V42.2262H47.8044ZM13.5952 38.4533H12.4536V18.1409H13.5952V38.4533ZM22.2608 38.9567H20.5484V37.951H22.2608V38.9567ZM22.2608 36.1028H20.5484V35.0971H22.2608V36.1028ZM22.2608 33.2489H20.5484V32.2432H22.2608V33.2489ZM22.2608 30.395H20.5484V29.3893H22.2608V30.395ZM22.2608 27.5411H20.5484V26.5354H22.2608V27.5411ZM22.2608 24.6866H20.5484V23.6809H22.2608V24.6866ZM22.2608 21.8327H20.5484V20.827H22.2608V21.8327ZM22.2608 18.9788H20.5484V17.9731H22.2608V18.9788ZM22.2608 16.1249H20.5484V15.1192H22.2608V16.1249ZM22.2608 13.271H20.5484V12.2653H22.2608V13.271ZM26.827 38.9567H25.1147V37.951H26.827V38.9567ZM26.827 36.1028H25.1147V35.0971H26.827V36.1028ZM26.827 33.2489H25.1147V32.2432H26.827V33.2489ZM26.827 30.395H25.1147V29.3893H26.827V30.395ZM26.827 27.5411H25.1147V26.5354H26.827V27.5411ZM26.827 24.6866H25.1147V23.6809H26.827V24.6866ZM26.827 21.8327H25.1147V20.827H26.827V21.8327ZM26.827 18.9788H25.1147V17.9731H26.827V18.9788ZM26.827 16.1249H25.1147V15.1192H26.827V16.1249ZM26.827 13.271H25.1147V12.2653H26.827V13.271ZM31.3933 38.9567H29.6809V37.951H31.3933V38.9567ZM31.3933 36.1028H29.6809V35.0971H31.3933V36.1028ZM31.3933 33.2489H29.6809V32.2432H31.3933V33.2489ZM31.3933 30.395H29.6809V29.3893H31.3933V30.395ZM31.3933 27.5411H29.6809V26.5354H31.3933V27.5411ZM31.3933 24.6866H29.6809V23.6809H31.3933V24.6866ZM31.3933 21.8327H29.6809V20.827H31.3933V21.8327ZM31.3933 18.9788H29.6809V17.9731H31.3933V18.9788ZM31.3933 16.1249H29.6809V15.1192H31.3933V16.1249ZM31.3933 13.271H29.6809V12.2653H31.3933V13.271ZM39.4887 38.4533H38.3471V18.1409H39.4887V38.4533Z"
                fill="#593DFF" />
            </svg>