<svg xmlns="http://www.w3.org/2000/svg" width="52" height="52" viewBox="0 0 52 52" fill="none">
                    <path
                      d="M6.05311 4.50923C4.7328 4.69204 3.29061 5.68735 2.66093 6.82485C2.11249 7.84048 2.01093 8.47017 2.01093 11.3342V13.9545H25.9797H49.9484V11.3342C49.9484 8.47017 49.8672 7.86079 49.2984 6.82485C48.9125 6.11392 47.9172 5.19985 47.1656 4.87485C46.8406 4.73267 46.2516 4.54985 45.8656 4.48892C45.0328 4.36704 7.0078 4.36704 6.05311 4.50923ZM10.1156 6.92642C11.0297 7.29204 11.5984 8.16548 11.5984 9.14048C11.5984 10.5827 10.6031 11.578 9.18124 11.578C7.0078 11.578 5.95155 9.0186 7.4953 7.45454C8.20624 6.76392 9.22186 6.56079 10.1156 6.92642ZM17.1437 6.86548C17.6922 7.00767 18.3015 7.5561 18.5859 8.12485C18.7687 8.49048 18.8094 8.73423 18.7687 9.32329C18.7281 10.217 18.4234 10.7249 17.7125 11.2124C17.1031 11.6186 15.9859 11.6999 15.3359 11.3749C13.7922 10.5827 13.4469 8.67329 14.6656 7.45454C15.3562 6.80454 16.1687 6.60142 17.1437 6.86548Z"
                      fill="white" />
                    <path
                      d="M2.03125 29.8592C2.03125 41.3967 2.05156 43.367 2.19375 43.9154C2.68125 45.8248 4.14375 47.1654 6.07344 47.4701C7.08906 47.6326 44.8906 47.6326 45.9062 47.4701C47.8156 47.1654 49.2984 45.8045 49.8062 43.9357C49.9484 43.3467 49.9688 41.5389 49.9688 29.8389V16.4326H26H2.03125V29.8592ZM31.7078 28.2748L37.375 33.9217L35.6688 35.6279L33.9625 37.3545L33.5969 36.9889L33.2313 36.6232V39.7311V42.8389H30.8141H28.3969V39.2436V35.6482H26H23.6438V39.2436V42.8389H21.2266H18.7891V39.7311V36.6029L18.4234 36.9686L18.0578 37.3342L16.3516 35.6279L14.625 33.9217L20.2719 28.2748C23.3797 25.167 25.9594 22.6076 25.9797 22.6076C26 22.6076 28.6 25.167 31.7078 28.2748Z"
                      fill="white" />
                  </svg>