<svg xmlns="http://www.w3.org/2000/svg" width="49" height="52" viewBox="0 0 49 52" fill="none">
                    <path
                      d="M24.3942 0.0543251C18.5681 0.767307 13.9235 4.8313 12.5179 10.4639C12.3244 11.2685 12.2429 11.8796 12.2022 13.1019C12.1207 15.3733 12.3957 17.0539 13.1596 18.8974C14.9522 23.2364 18.8533 26.3735 23.4876 27.2189C24.7405 27.443 26.9711 27.443 28.2443 27.2087C32.5527 26.4245 36.3519 23.5216 38.226 19.5798C39.1427 17.6548 39.5094 15.9844 39.5094 13.7028C39.5094 11.9102 39.3871 11.075 38.8881 9.47587C37.4417 4.85168 33.3064 1.1951 28.4683 0.258034C27.2766 0.0237675 25.4229 -0.0679016 24.3942 0.0543251ZM27.3479 9.11938V12.175H30.4036H33.4592V13.7028V15.2307H28.8758H24.2923V10.6472V6.06374H25.8201H27.3479V9.11938Z"
                      fill="white" />
                    <path
                      d="M42.5752 29.8874C41.1085 30.305 40.9761 30.417 36.1584 35.2144L31.6666 39.6756H23.396H15.1254V38.1478V36.62H22.0006H28.8758V36.3348C28.8758 36.182 28.8045 35.7338 28.723 35.3468C28.285 33.2791 26.7165 31.5374 24.6488 30.8346L23.834 30.5596L17.0606 30.5392L10.2873 30.5087L5.14366 34.919C2.3121 37.3431 0 39.3802 0 39.4515C0 39.6145 8.42337 51.9898 8.53541 52C8.57615 52 9.67618 51.287 10.9799 50.4213L13.3429 48.8425H22.9682H32.5935L40.1307 40.5821C44.2762 36.0394 47.8513 32.118 48.0754 31.8634L48.4726 31.3948L48.0244 31.0078C47.4846 30.5392 46.5373 30.0707 45.7123 29.8568C44.8873 29.6429 43.3697 29.6531 42.5752 29.8874Z"
                      fill="white" />
                  </svg>