<svg width="32" height="32" viewBox="0 0 32 32" fill="none" xmlns="http://www.w3.org/2000/svg">
              <g clip-path="url(#clip0_19_231)">
                <path class="facebook-cls-1"
                  d="M17.5 25H14V17H11.5V13.5H13.5V9.5L16.5 7H20.5V10.5H18L17.5 13.5H20.5V17H17.5V25Z" fill="white" />
                <path class="facebook-cls-2"
                  d="M15.9821 0.175781C7.25244 0.175781 0.175812 7.25241 0.175812 15.982C0.175812 24.7116 7.25244 31.7883 15.9821 31.7883C24.7117 31.7883 31.7883 24.7116 31.7883 15.982C31.7883 7.25241 24.7117 0.175781 15.9821 0.175781ZM20.5381 10.1176H18.8957C17.5985 10.1176 17.3463 10.734 17.3463 11.6381V13.6322H20.4493L20.0355 16.7639H17.3463V24.7633H14.1152V16.7639H11.426V13.6322H14.1152V11.328C14.1152 8.64898 15.7474 7.20113 18.1303 7.20113C18.9347 7.19762 19.7383 7.23907 20.5381 7.32512V10.1176Z"
                  fill="#1877F2" />
              </g>
              <defs>
                <clipPath id="clip0_19_231">
                  <rect width="32" height="32" fill="white" />
                </clipPath>
              </defs>
            </svg>