<svg width="32" height="32" viewBox="0 0 32 32" fill="none" xmlns="http://www.w3.org/2000/svg">
              <g clip-path="url(#clip0_19_243)">
                <path class="tiktok-cls-1"
                  d="M15 17V13.5C13.8333 13.5 11 13.5 9 16.5C6.99999 19.5 8.16666 22.1667 9 23.5C9.66666 24.6667 11.9 26.8 15.5 26C19.1 25.2 20.3333 22 20.5 20.5V12.5C20.8333 12.6667 21.6 13.1 22 13.5C22.4 13.9 24.5 14.3333 25.5 14.5V11C24.8333 10.8333 23.2 10.3 22 9.5C20.8 8.7 20.5 6.83333 20.5 6H17C17.1667 10.5 17.4 19.8 17 21C16.5 22.5 15 22.5 13 22.5C11 22.5 10.5 19.5 11.5 18C12.5 16.5 14 16.8333 15 17Z" />
                <path class="tiktok-cls-2"
                  d="M15.9821 0.175781C7.25244 0.175781 0.175812 7.25241 0.175812 15.982C0.175812 24.7116 7.25244 31.7883 15.9821 31.7883C24.7117 31.7883 31.7883 24.7116 31.7883 15.982C31.7883 7.25241 24.7117 0.175781 15.9821 0.175781ZM25.4795 11.8643V14.2381C24.3601 14.2384 23.2726 14.0192 22.247 13.5865C21.5873 13.308 20.973 12.9493 20.411 12.5159L20.4278 19.8222C20.4208 21.4675 19.7699 23.0134 18.5918 24.1777C17.6329 25.1254 16.4183 25.7282 15.1015 25.9235C14.792 25.9691 14.4773 25.9927 14.1587 25.9927C12.7492 25.9927 11.4109 25.536 10.3164 24.6937C10.1106 24.535 9.91351 24.3632 9.72595 24.1781C8.44915 22.9161 7.79091 21.2058 7.90155 19.4067C7.98621 18.0372 8.53451 16.7309 9.44846 15.7074C10.6578 14.3526 12.3498 13.6006 14.1587 13.6006C14.477 13.6006 14.792 13.6244 15.1015 13.6701V14.5479V16.9894C14.8082 16.8928 14.4949 16.8394 14.1686 16.8394C12.5159 16.8394 11.1787 18.1879 11.2033 19.8419C11.2191 20.9002 11.7969 21.8251 12.6498 22.3351C13.0505 22.5746 13.5114 22.7232 14.0031 22.7503C14.3884 22.7713 14.7587 22.7176 15.1011 22.6045C16.282 22.2143 17.1338 21.1054 17.1338 19.7973L17.1377 14.9044V5.97141H20.4068C20.4099 6.29526 20.4429 6.61138 20.5037 6.91767C20.7503 8.15723 21.4493 9.23276 22.4215 9.96582C23.2694 10.6054 24.3253 10.9844 25.4697 10.9844C25.4704 10.9844 25.4799 10.9844 25.4792 10.9837L25.4795 11.8643Z" />
              </g>
              <defs>
                <clipPath id="clip0_19_243">
                  <rect width="32" height="32" fill="white" />
                </clipPath>
              </defs>
            </svg>