<svg xmlns="http://www.w3.org/2000/svg" width="52" height="52" viewBox="0 0 52 52" fill="none">
              <path
                d="M39.3197 31.0497L44.765 27.959L40.2084 13.2471C36.5366 11.5673 30.6227 10.4765 25.2734 10.6831C20.1421 10.6831 12.6214 19.5828 13.739 23.0012C15.5906 24.4686 18.456 24.669 22.1461 20.7432C23.3944 20.8659 25.2974 20.0365 26.2939 19.3527L29.1712 21.4572L39.3197 31.0497Z"
                fill="white" />
              <path
                d="M0.285715 10.0844V27.5166H4.94843L9.88226 11.5861C6.28348 10.8104 3.16531 10.3224 0.285715 10.0844Z"
                fill="white" />
              <path d="M42.0578 11.5861L46.9922 27.5166H51.656V10.0844C48.7764 10.3224 45.6577 10.8104 42.0578 11.5861Z"
                fill="white" />
              <path
                d="M38.9773 33.8745L27.7049 23.218L26.1267 22.0645C25.2585 22.4771 24.194 22.8624 23.1387 22.9948C17.8361 28.1245 13.8326 25.9949 12.3178 24.7939L11.7784 24.3664L11.5638 23.7123C10.7207 21.1341 12.3868 18.0507 13.9325 15.9177C14.7048 14.8526 15.6295 13.7881 16.6466 12.8047H11.8686L7.41648 27.1787C15.166 36.2689 22.9457 44.4442 27.7626 40.6371L28.2506 41.1314C29.1992 42.0909 30.7603 42.1006 31.7198 41.1531C32.6793 40.2056 32.689 38.6434 31.7415 37.6839L33.2141 39.1748C34.1627 40.1343 35.7238 40.144 36.6833 39.1965C37.6428 38.2484 37.6525 36.6867 36.705 35.7273L36.8551 35.8945C37.8037 36.854 39.5138 37.0035 40.4739 36.056C41.3426 35.1976 41.4248 33.8425 40.7313 32.8802L38.9773 33.8745Z"
                fill="white" />
            </svg>