<svg xmlns="http://www.w3.org/2000/svg" width="52" height="52" viewBox="0 0 52 52" fill="none">
              <g clip-path="url(#clip0_46_419)">
                <path
                  d="M20.3463 12.4759C20.4822 12.6083 20.5444 12.799 20.5119 12.9862L19.4839 18.9783C19.4028 19.4492 19.8977 19.8082 20.3207 19.5861L25.702 16.7568C25.8698 16.6683 26.0707 16.6683 26.2385 16.7568L31.6198 19.5861C32.0428 19.8087 32.5371 19.4492 32.4566 18.9783L31.4286 12.9862C31.3967 12.799 31.4583 12.6083 31.5942 12.4759L35.9481 8.23216C36.2905 7.89883 36.1016 7.3172 35.6284 7.24871L29.6124 6.37427C29.4246 6.34687 29.2625 6.22929 29.1786 6.05863L26.4879 0.606527C26.2762 0.17787 25.6655 0.17787 25.4537 0.606527L22.763 6.05863C22.6791 6.22872 22.5165 6.34687 22.3292 6.37427L16.3126 7.24871C15.84 7.3172 15.6511 7.89883 15.993 8.23216L20.3463 12.4759Z"
                  fill="white" />
                <path
                  d="M31.2848 31.0748V28.6318C31.2848 25.6969 28.9058 23.3179 25.9708 23.3179C23.0359 23.3179 20.6569 25.6969 20.6569 28.6318V31.0748C20.6569 34.0097 23.0359 36.3888 25.9708 36.3888C28.9058 36.3888 31.2848 34.0097 31.2848 31.0748Z"
                  fill="white" />
                <path
                  d="M25.9709 36.3888C20.7756 36.3888 16.5644 40.6 16.5644 45.7953V47.0732L25.9709 51.6561L35.3773 47.0727V45.7947C35.3773 40.6 31.1661 36.3888 25.9709 36.3888Z"
                  fill="white" />
                <path
                  d="M51.3677 39.2815C50.5977 34.8614 46.7513 31.4983 42.1114 31.4978C45.0458 31.4978 47.4248 29.1188 47.4248 26.1838V23.7409C47.4248 20.8059 45.0458 18.4269 42.1108 18.4269C39.1758 18.4269 36.7968 20.8059 36.7968 23.7409V26.1838C36.7968 29.1182 39.1758 31.4978 42.1102 31.4978C38.3311 31.4978 35.0816 33.7318 33.5862 36.9464C36.0754 39.092 37.6593 42.2593 37.6593 45.7953V45.9608L51.3677 39.2815Z"
                  fill="white" />
                <path
                  d="M18.3549 36.9464C16.8595 33.7318 13.61 31.4983 9.83087 31.4978C12.7653 31.4978 15.1443 29.1188 15.1443 26.1838V23.7409C15.1443 20.8059 12.7653 18.4269 9.8303 18.4269C6.89534 18.4269 4.51632 20.8059 4.51632 23.7409V26.1838C4.51632 29.1182 6.89534 31.4978 9.82973 31.4978C5.18927 31.4978 1.34335 34.8614 0.573364 39.2815L14.2812 45.9608V45.7953C14.2818 42.2593 15.8657 39.0914 18.3549 36.9464Z"
                  fill="white" />
              </g>
              <defs>
                <clipPath id="clip0_46_419">
                  <rect width="52" height="52" fill="white" />
                </clipPath>
              </defs>
            </svg>