<svg id="_Слой_25" class="partners__image" data-name="Слой 25" xmlns="http://www.w3.org/2000/svg"
              viewBox="0 0 204.24 50.27">

              <g id="_Слой_1-25" data-name="Слой 1">
                <path class="vox-cls-1"
                  d="M4.71.95h9.22c.94,5.96,1.88,11.92,2.82,17.88,3.2-5.96,6.4-11.92,9.6-17.88h9.22c-5.15,10.29-10.29,20.58-15.44,30.87h-9.98C8.35,21.53,6.53,11.24,4.71.95Z" />
                <path class="vox-cls-1"
                  d="M64.9.95h10.96c1.38,2.64,2.76,5.27,4.14,7.91,2.13-2.64,4.27-5.27,6.4-7.91h10.16c-4.33,4.83-8.66,9.66-12.99,14.49,2.32,4.96,4.64,9.91,6.96,14.87.56-1.88,1.13-3.76,1.69-5.65h6.21c-.56,2.38-1.13,4.77-1.69,7.15h-15.81c-1.51-3.2-3.01-6.4-4.52-9.6-2.2,3.2-4.39,6.4-6.59,9.6h-9.98l13.36-16.56c-2.78-4.77-5.55-9.54-8.33-14.31Z" />
                <path class="vox-cls-1" d="M167.25,26.5l-.85,5.31h-5.29c.42-1.77.85-3.54,1.27-5.31h4.87Z" />
                <path class="vox-cls-1"
                  d="M61.18,2.84C58.37.23,54.62.09,52.52.01c-7.22-.27-14.9,3.85-18.45,10.92-.33.65-5.15,10.58,0,17.13,5.17,6.59,17.43,5.94,24.28,0,7.66-6.63,8.58-19.87,2.82-25.22ZM54.12,19.33c-.47,1.19-1.41,3.49-3.83,5.02-.65.41-3.5,2.22-5.96,1.15-3.41-1.49-3.23-7.34-3.2-8.22.12-3.84,2.05-7.69,4.99-9.46.66-.4,2.07-1.25,3.95-1.13.18.01,1.42.1,2.4.68,2.94,1.73,3.32,7.69,1.65,11.96Z" />
                <path class="vox-cls-1"
                  d="M4.71,39.54c-1.57,3.58-3.14,7.15-4.71,10.73h24.66c1.63-3.58,3.26-7.15,4.89-10.73H4.71Z" />
                <path class="vox-cls-1"
                  d="M33.32,39.54c-1.57,3.58-3.14,7.15-4.71,10.73h24.66c1.63-3.58,3.26-7.15,4.89-10.73h-24.85Z" />
                <path class="vox-cls-1"
                  d="M61.93,39.54c-1.57,3.58-3.14,7.15-4.71,10.73h24.66c1.63-3.58,3.26-7.15,4.89-10.73h-24.85Z" />
                <g>
                  <path class="vox-cls-1"
                    d="M113.67,30.99c-1.27.55-3.11.82-5.18.82-4.46,0-8.05-2.36-8.05-7.01,0-6.01,5.16-10.37,12.34-10.37,1.5,0,2.77.18,3.7.48l-1.52,4.39c-.61-.2-1.26-.32-2.22-.32-3.47,0-5.6,2.41-5.6,5.19,0,2.14,1.62,3.03,3.21,3.03,1.44,0,2.46-.26,3.38-.59l-.07,4.37Z" />
                  <path class="vox-cls-1"
                    d="M133.78,21.25c0,6.47-4.88,10.57-11.34,10.57-4.73,0-8.09-2.59-8.09-6.91,0-5.87,4.57-10.5,11.34-10.5,4.95,0,8.08,2.92,8.08,6.84ZM120.98,24.82c0,1.62.82,2.63,2.37,2.63,2.62,0,3.82-3.75,3.82-6.14,0-1.38-.64-2.53-2.31-2.53-2.77,0-3.89,3.99-3.88,6.04Z" />
                  <path class="vox-cls-1"
                    d="M132.89,31.45l2.23-10.99c.46-2.22.76-4.14,1-5.67h5.46l-.26,2.54h.05c1.68-2.09,3.9-2.91,6.23-2.91,2.99,0,4.23,1.72,4.39,2.91,1.66-2.04,3.97-2.91,6.18-2.91,3.15,0,4.51,1.84,4.51,4.52,0,.67-.16,2.07-.32,2.88l-1.98,9.64h-6.18l1.8-8.89c.13-.67.24-1.33.24-1.96,0-.91-.48-1.58-1.42-1.58-1.59,0-3.01,2.11-3.67,5.31l-1.48,7.12h-6.14l1.83-8.89c.13-.64.24-1.3.24-1.85,0-1.03-.39-1.69-1.31-1.69-1.63,0-3.15,2.14-3.79,5.31l-1.44,7.12h-6.18Z" />
                  <path class="vox-cls-1"
                    d="M187.79,14.78l-2.29,10.99c-.49,2.22-.79,4.13-1.06,5.67h-5.63l.28-2.52-.07-.02c-2,2.17-4.15,2.91-6.28,2.91-3.2,0-4.68-1.72-4.68-4.59,0-.97.13-2.02.37-3.18l1.94-9.27h6.39l-1.83,8.76c-.14.7-.26,1.53-.26,2.1,0,.79.36,1.51,1.4,1.51,1.63,0,3.1-1.82,3.78-5l1.54-7.38h6.39Z" />
                  <path class="vox-cls-1"
                    d="M187.1,25.91c.37-3.51,3.56-5.21,10.8-5.27-.02-1.23-.79-1.84-2.43-1.98-1.34-.12-2.81.24-4.85,1.01l-.84-3.97c2.76-1.19,4.54-1.77,7.45-1.52,4.85.42,7.52,3.03,6.94,8.56l-.94,8.93-5.68-.13.13-1.52h-.15c-1.62,1.07-3.35,1.74-5.36,1.57-3.51-.3-5.35-2.91-5.06-5.67ZM197.3,26.38l.24-2.29c-3.1.14-4.17.93-4.27,1.88-.08.78.47,1.27,1.59,1.36,1.04.09,1.69-.33,2.43-.95Z" />
                </g>
              </g>
            </svg>