<svg id="_Слой_22" class="partners__image" data-name="Слой 22" xmlns="http://www.w3.org/2000/svg"
              viewBox="0 0 899.92 439.65">
              <g id="_Слой_1-22" data-name="Слой 1">
                <g>
                  <g>
                    <g>
                      <path class="doom-cls-3"
                        d="M726.74,0c18.82,13.5,37.59,27.05,56.4,40.56,27.59,19.83,56.41,41.1,84.87,61.01l2.08,3.42h-176.32c-33.33-28-66.58-55.95-99.91-84.07-1.04-.87-2.67-2-4.42-3.48-6.73-5.67-14.49-10.55-20.04-17.45h157.34Z" />
                      <path class="doom-cls-5"
                        d="M436.55,105L557.05,3.07c5.81,4.67,12.99,9.37,18.36,14.42,1.39,1.3,4.57,3.49,3.54,5.5l-97.96,82.01h-44.45Z" />
                      <g>
                        <path class="doom-cls-2"
                          d="M449.86,43.67c2.2,1.49,4.26,2.78,6.42,4.29,4.5,3.17,13.36,8.02,16.61,12,.54.67,1.11.47.6,2.01l-49.29,38.79-71.53-59.27c.92-1.47,1.92-1.38,3.42-1.55,27.69-3.01,60.73,2.39,89,0,3.24-.66,3.53,2.88,4.77,3.72Z" />
                        <polygon class="doom-cls-5"
                          points="266.72 105 340.32 43.14 354.61 54.5 294.19 105 266.72 105" />
                        <path class="doom-cls-5"
                          d="M271.22,65c.94.21,15.01,9.98,15.85,10.91s1,1.02.49,2.4c-.67,1.79-27.41,24.47-29.31,24.36l-44.46-37.67h57.44Z" />
                        <path class="doom-cls-5"
                          d="M164.83,103l42.46-36.04c1.02,0,8.4,5.42,7.53,7.5-4.97,2.63-32.26,28.54-34.5,28.54h-15.48Z" />
                      </g>
                    </g>
                    <g>
                      <path class="doom-cls-4"
                        d="M844.9,133.28c75.66-8.6,49.7,88.83,54.2,133.26-7.42,57.6-92.57,55.59-94.56-5.21-.82-25.15-1.54-63.33.58-87.87,1.83-21.14,18.9-37.81,39.77-40.19ZM844.88,149.26c-14.76,2.13-21.76,16.67-22.78,30.2-1.64,21.97-1.88,61.25.05,83.02,1.18,13.32,8.4,27.18,22.72,29.26,18.37,2.66,31.49-4.33,35.74-22.71,3.6-15.6,3.14-73.11,1.46-90.53-2.05-21.27-16-32.3-37.19-29.25Z" />
                      <path class="doom-cls-4"
                        d="M752.86,145.35c7.21,7.02,11.7,17.26,13.33,27.16-1.98,30.7,2.67,64.73.05,95.03-3.59,41.47-59.29,54.72-83.93,23.94-19.73-24.65-5.72-85.95-10.05-117.01,2.67-38.98,53.73-55.25,80.6-29.11ZM712.02,149.26c-9.36,1.35-16.4,8.81-19.61,17.37-5.41,14.42-4.25,72.94-3.17,90.91,1.14,19.02,8.79,35.43,30.51,35.24,17.84-.16,28.18-13.39,29.51-30.25,1.77-22.46,1.76-61.61,0-84.07-1.71-21.78-15.78-32.29-37.24-29.2Z" />
                      <path class="doom-cls-4"
                        d="M431.55,291h72.92v16h-94.9v-16.5c21.07-29.34,47.99-57.03,68.34-86.59,18.32-26.6,7.78-60.16-28.43-54.46-15.01,2.36-22.65,16.2-21.93,30.55h-17.98c-.13-31.17,23.06-49.46,53.43-46.98,36.92,3.01,52.21,41.95,34.29,72.29l-65.74,85.69Z" />
                      <g>
                        <path class="doom-cls-4"
                          d="M540.44,260l.98-.5-.98-.5c.14-23.53-.65-47.08-1.04-70.46-1.25-75.02,90.99-71.53,94.99-10.09,1.53,23.48,2.13,64.93-.17,87.93-5.26,52.67-82.02,57.04-93.48,5.82-1.36-6.07-.34-7.42-.3-12.2ZM580.16,149.26c-13.02,1.9-20.43,13.36-22.48,25.5,1.62,28.65-3.06,61.57-.25,89.73,3.64,36.43,52.37,37.46,58.69,2.77-1.49-28.86,2.83-61.3.22-89.74-1.89-20.67-15.61-31.25-36.19-28.26ZM540.94,180v1c.65-.33.65-.67,0-1Z" />
                        <path class="doom-cls-1" d="M540.44,260c0-.33,0-.67,0-1l.98.5-.98.5Z" />
                        <path class="doom-cls-1" d="M540.94,180c.65.33.65.67,0,1v-1Z" />
                      </g>
                      <g>
                        <path class="doom-cls-7"
                          d="M381.6,275.1h-25.5c-1.1,0-1.4-2.4-1.5-3.5-2.2-18.5,1.4-42,.7-60.9-.5-13.4-9.6-20.2-22.9-17.4-4.6.9-11.7,8.9-11.7,13.3v68.5h-26v-64.5c0-.7-1.5-7-1.9-8.1-4.4-12.1-23.9-13.2-30.2-2.2-.6,1.1-2.8,6.4-2.8,7.2v67.5h-26v-105h25c.5,0-.3,7.9,0,9,.7.8,7.2-5,8.7-5.8,10.6-5.8,25.8-5.9,36.3.3,3.9,2.3,5.6,5.6,9.5,7.6,11.8-11.1,27.8-14.9,43.5-10.6,12.4,3.4,25,17.9,25,31v73.5h0l-.2.1Z" />
                        <g>
                          <path class="doom-cls-7"
                            d="M0,275.1v-143h63.4c13.1,0,30.5,14.6,35.6,26.3,7,15.9,7.2,69.7,1.6,85.9-5.6,16.3-23.4,30.7-40.2,30.7H0v.1ZM28,157.1v91.5c0,.1,1.4,1.5,1.5,1.5h25c1.1,0,8.8-2.9,10.2-3.8,3.6-2.1,7.1-6.5,8.6-10.4,4-11,4.2-53,.4-64-2.2-6.3-11.4-14.8-18.2-14.8,0,0-27.5,0-27.5,0Z" />
                          <path class="doom-cls-7"
                            d="M137.2,265.7c-14.6-13.2-15.1-39.7-13.2-58,5.1-50.8,79.9-52.7,87.7-2,2.1,13.8,1.6,38.2-5.5,50.3-13.5,23.1-49.5,27.3-69,9.7h0ZM162.6,193.3c-16.6,3.4-15.4,42.9-7.7,53.3,7.2,9.6,23.7,7.7,28.5-3.5,3.6-8.5,3.9-33.5-.3-41.7-3.9-7.5-12.6-9.7-20.4-8.1h-.1Z" />
                        </g>
                      </g>
                    </g>
                  </g>
                  <g>
                    <path class="doom-cls-1"
                      d="M58.94,352c.05,19.17-.04,38.36-.04,57.54,0,1.93.82,3.64.77,5.69-.18,7.42-3.64,4.22-9.72,4.76v-60H16.98l-.14,58.36c-.83,2.86-9.85,1.95-9.85.14v-65c0-.11,1.39-1.5,1.5-1.5h50.45Z" />
                    <path class="doom-cls-1"
                      d="M121.87,371c5.81.37,9.2-2.36,8,5,9.77-9.69,26.61-8.25,32.69,4.77,10.77,23.08-5.78,53.37-31.69,36.23-1.39,4.06,1.81,20.73-1.65,21.86-2.04.66-5.12-.12-7.35.14v-68ZM142.61,377.25c-16.7,1-17.88,38.63,2.74,36.8,16.11-1.43,16.22-37.94-2.74-36.8Z" />
                    <path class="doom-cls-1"
                      d="M647.33,371c2.72.41,8.81-1.06,10.51.98,3.23,8.14,6.29,17.15,10.03,25.01.52,1.08-.08,2.55,1.93,2.01,1.51-.4,10.35-27.03,11.66-27.84,1.5-.93,7.54.3,9.83-.17v49h-7.99v-31l-11.65,27.04c-1.42-.2-4.2.45-5.2-.18s-7.18-19.18-8.84-22.64c-.57-1.19-.54-2.96-2.28-3.22v30h-7.99v-49Z" />
                    <path class="doom-cls-1"
                      d="M458.52,416v23h-7.99v-68c6.85-.1,7.71-1.57,7,6,12.69-13.96,33.03-6.66,35.69,11.76,3.45,23.86-12.09,43.57-34.7,27.24ZM470.28,377.18c-15.78,1.78-15.5,33.83-2.04,36.58,23.07,4.71,22.02-38.83,2.04-36.58Z" />
                    <path class="doom-cls-1"
                      d="M259.86,413.87c.59.89,4.58.49,4.92,1.75,2.69,9.77-13.76,8.02-13.05-.62-12.09,13.34-39.53,6.48-31.47-14.02,4.66-11.87,27.2-7.65,30.02-11.94,1.06-1.62.81-6.83-.46-8.62-2.67-3.75-12.81-3.84-16.62-1.48-2.99,1.85-3.17,6.62-3.55,6.95-.75.66-6.22-.21-7.89.12-3.5-17.46,27.45-21.01,34.98-10.51,6.48,9.04.53,34.44,3.12,38.37ZM251.74,397c-6.3.58-22.93.49-23.95,8.6-1.44,11.46,13.02,11.03,19.68,5.74,4.26-3.38,4.6-9.38,4.27-14.34Z" />
                    <path class="doom-cls-1"
                      d="M441.54,398h-34.96c-.98,10.99,7.88,18.88,18.71,15.23,6.49-2.19,5.21-11.13,15.25-8.22-.46,8.99-8.98,16.01-17.59,16.88-32.78,3.32-31.85-48.47-7.79-51.8,18.97-2.63,28.06,10.08,26.38,27.91ZM433.55,392c-.7-19.73-26.84-20.12-26.97,0h26.97Z" />
                    <path class="doom-cls-1"
                      d="M76.27,416.65c-11.93-11.14-9.15-43.28,9.38-46.41,22.78-3.86,29.71,13.54,27.15,33.18-2.27,17.38-24.09,24.85-36.53,13.24ZM89.68,377.2c-16.04,2.21-15.32,33.83-2.04,36.57,23.27,4.81,22.65-39.4,2.04-36.57Z" />
                    <path class="doom-cls-1"
                      d="M609.11,370.24c9.97-1.71,20.41.77,24.96,10.53,8.48,18.17.62,44.18-22.95,40.96-24.75-3.38-23.23-47.86-2.01-51.5ZM613.13,377.2c-16.64,2.28-16.48,40.02,4.66,36.74,15.88-2.47,14.66-39.39-4.66-36.74Z" />
                    <path class="doom-cls-1"
                      d="M716.99,370.24c13.57-2.3,23.71,2.85,26.98,16.51,4.25,17.77-3.78,37.87-24.97,34.98-24.44-3.33-23.76-47.81-2.02-51.5ZM731.9,410.66c7.37-7.7,6.22-30.8-6.61-33.24-20.09-3.82-21.06,34.1-5.47,36.51,4.14.64,9.11-.16,12.09-3.27Z" />
                    <path class="doom-cls-1"
                      d="M521.45,407c1.42-4.43,10.55-34.83,12.13-35.86,1.27-.82,6.82.29,8.85-.13l-22.09,60.37c-2.06,4.68-5.06,7.92-10.51,8.27-.87.06-7.08-.39-7.35-.65-.23-.22-.15-5.38.15-6.35.84-2.75,3.5-.41,5.86-1.04,4.77-1.27,7.15-9.59,6.95-14.02-1.34-5.81-16.69-44.85-14.97-46.59,2.29.27,7.15-.9,8.52.97,3.83,10.11,6,22.88,10.43,32.56.45.99.61,2.35,2.03,2.46Z" />
                    <path class="doom-cls-1"
                      d="M357.63,371v20h21.98v-18.5c0-2.08,7.33-1.5,8.99-1.5v47.5c0,2.14-8.99,2.14-8.99,0v-20.5h-21.98v22h-7.99v-49h7.99Z" />
                    <path class="doom-cls-1"
                      d="M792.18,388c-1.88-.37-6.68.65-7.86-.13-1.25-.81-.58-7.71-7.72-9.82-19.99-5.91-22.05,32.56-6.67,35.71,4.81.99,8.72.25,11.7-3.83,4.24-5.79-.45-8.09,10.07-6.94,1.5.16,1.69-.54,1.32,1.32-1.97,9.98-7.7,16.91-18.34,17.67-31.16,2.22-29.2-48.34-6.91-51.94,13.04-2.1,24.44,3.58,24.42,17.93Z" />
                    <path class="doom-cls-1"
                      d="M311.68,371v49h-7.99v-41h-15.98v23.5c0,1.2-3.6,10.99-4.54,12.45-1.87,2.89-9.4,9.17-10.44,3.54-1.14-6.14,1.67-5.02,3.02-7.23,1.14-1.85,3.97-8.97,3.97-10.77v-29.5h31.97Z" />
                    <path class="doom-cls-1"
                      d="M556.22,371.21c1.47.86,9.16,16.77,10.69,16.77,2.83-1.92,9.36-16,10.69-16.77,1.65-.96,6.54.22,8.78-.21,2.13,2.06-14.08,19.33-14.08,23.5,0,3.92,16.75,23.96,15.07,25.49-2.56-.34-6.82.8-8.98-.5-1.98-1.19-9.27-14.5-11.01-17.49-8.05,6.39-8.77,21.3-21.96,17.99-1.15-.99,15.76-21.57,16.01-24.57.35-4.17-13.1-17.98-14.03-22.92-.48-2.55,7.99-1.79,8.81-1.3Z" />
                    <polygon class="doom-cls-1"
                      points="209.78 371 209.79 379.01 196.8 379 196.8 420 188.8 420 188.8 379 175.81 379.01 175.82 371 209.78 371" />
                    <polygon class="doom-cls-1"
                      points="834.13 371 834.14 379.01 821.14 379 821.14 420 813.15 420 813.15 379 800.16 379.01 800.17 371 834.13 371" />
                    <rect class="doom-cls-1" x="846.12" y="371" width="7.99" height="49" />
                    <rect class="doom-cls-1" x="846.1" y="351.98" width="8.03" height="11.04" />
                  </g>
                </g>
              </g>
            </svg>