<svg xmlns="http://www.w3.org/2000/svg" width="56" height="52" viewBox="0 0 56 52" fill="none">
                    <path
                      d="M19.1989 0.202515C14.1662 0.893013 9.61161 3.24336 6.05291 7.00126C-1.83467 15.3005 -2.03385 28.2473 5.57487 36.9184C8.04472 39.7335 11.5105 42.0174 15.0957 43.2125C17.7249 44.0889 18.9333 44.2748 22.0538 44.2881C25.5328 44.2881 27.0997 44.0225 30.1538 42.8805L31.2161 42.4822L31.1763 36.3474C31.1365 32.0716 31.1763 30.0665 31.2825 29.708C31.4817 29.0573 32.1457 28.3004 32.8096 28.0083C33.1017 27.8755 33.8852 27.7029 34.5358 27.6232C37.3908 27.278 39.688 26.3617 42.6624 24.423C43.2201 24.0645 43.8044 23.7325 43.9638 23.6927C44.216 23.6263 44.2692 23.5068 44.3356 22.8694C44.4285 21.7805 44.216 19.2177 43.8974 17.7305C41.5205 6.32404 30.6717 -1.36438 19.1989 0.202515ZM23.8863 7.13404C24.0191 7.29339 24.1253 7.7847 24.1917 8.67438C24.2979 10.1616 24.2448 10.1085 25.6391 10.3608C26.7279 10.56 28.2417 11.0513 28.6932 11.3434C28.9322 11.5028 29.0252 11.6754 29.0252 11.9941C29.0252 12.4854 28.4409 14.61 28.1355 15.181C27.9629 15.5262 27.8832 15.5528 27.4583 15.4997C27.1927 15.4598 26.4358 15.2341 25.7719 14.9951C24.7892 14.6498 24.3112 14.5702 23.0896 14.5038C21.7484 14.4507 21.5625 14.4639 20.9915 14.7428C20.2745 15.088 19.8628 15.6723 19.8628 16.3362C19.8628 17.372 20.6728 18.0492 23.2489 19.1248C25.9046 20.2535 26.874 20.8245 27.9097 21.8602C30.4593 24.3965 30.7779 28.0083 28.7065 30.7703C27.8832 31.8591 26.8474 32.616 25.3469 33.187C24.7361 33.4393 24.1784 33.7447 24.112 33.8775C24.0323 34.0103 23.9792 34.7406 23.9792 35.5108C23.9792 37.423 23.9527 37.4495 21.9476 37.4495C19.9823 37.4495 19.9558 37.423 19.8894 35.5506C19.8628 34.807 19.7831 34.1431 19.73 34.09C19.6769 34.0236 19.0395 33.8642 18.3225 33.7182C16.1182 33.2933 14.5248 32.6559 14.2592 32.0849C14.1529 31.8326 14.1928 31.4741 14.4716 30.3985C14.9231 28.6722 15.1887 28.1012 15.5871 28.0481C15.7464 28.0216 16.3971 28.2208 17.0212 28.4863C18.2428 29.0175 20.2081 29.4822 21.204 29.4822C21.5492 29.4822 22.2132 29.3627 22.6779 29.2167C24.5369 28.6457 25.1345 27.0257 23.9659 25.6978C23.4082 25.0604 22.9568 24.8214 20.5533 23.7856C19.3848 23.2943 18.0038 22.6038 17.4992 22.2586C15.1356 20.6917 14.1529 18.6202 14.5248 16.0441C14.8966 13.5079 16.2775 11.848 18.9333 10.7592C19.4777 10.5334 20.0089 10.2546 20.1018 10.135C20.1948 9.98898 20.2612 9.45783 20.2612 8.6611C20.2612 6.86847 20.2213 6.9083 22.1069 6.9083C23.4348 6.9083 23.7004 6.94814 23.8863 7.13404Z"
                      fill="white" />
                    <path
                      d="M43.2334 26.9059C40.5245 28.6056 37.9617 29.6015 35.3326 29.9733C34.5358 30.0928 33.7922 30.2388 33.6993 30.3185C33.5532 30.438 33.5266 31.5136 33.5665 36.0417C33.6329 42.2827 33.6329 42.3491 34.6022 44.2878C35.7575 46.6249 38.2273 48.8955 41.5337 50.6616C43.2069 51.5513 44.5746 52.0825 44.9464 51.9895C45.6103 51.8169 48.7972 50.2234 49.7666 49.5595C52.17 47.9395 53.8299 46.1336 54.8523 44.0222C55.5295 42.628 55.6623 42.0039 55.8482 39.5738C56.0076 37.3696 56.0209 30.677 55.8615 30.4248C55.7818 30.3052 55.1445 30.1592 54.1087 29.9998C51.3467 29.6015 48.7441 28.579 46.0485 26.8262C45.3713 26.388 44.7737 26.0295 44.7206 26.0295C44.6675 26.0295 44.0036 26.4278 43.2334 26.9059ZM49.9259 33.7577C50.1118 33.8374 50.3641 34.0499 50.4703 34.2225C50.643 34.4748 50.643 34.581 50.5102 34.8466C50.1251 35.5636 43.9505 44.3542 43.7778 44.4206C43.3396 44.5932 43.3662 44.6331 39.9536 40.1183C39.4224 39.4145 38.9842 38.7638 38.9842 38.6709C38.9842 38.3655 39.6216 37.8476 39.9934 37.8476C40.2457 37.8476 40.83 38.2061 41.9188 39.0427C42.7819 39.6933 43.5123 40.2378 43.5388 40.2378C43.5654 40.2378 44.8401 38.8037 46.3539 37.0509C48.6777 34.3686 49.3549 33.6382 49.5674 33.5984C49.5807 33.5984 49.74 33.6648 49.9259 33.7577Z"
                      fill="white" />
                  </svg>